<?xml version="1.0" encoding="UTF-8" standalone="no"?>
<!-- Created with Inkscape (http://www.inkscape.org/) -->

<svg
   width="1920"
   height="1080"
   viewBox="0 0 507.99994 285.74997"
   version="1.1"
   id="svg5"
   xml:space="preserve"
   xmlns="http://www.w3.org/2000/svg"
   xmlns:svg="http://www.w3.org/2000/svg"><defs
     id="defs2" /><g
     id="layer1"><g
       id="g399"><path
         id="rect18"
         style="fill:#fd7aa8;stroke-width:0.26145;stroke-linecap:round;stroke-linejoin:round;paint-order:markers stroke fill"
         transform="rotate(-11.448171)"
         d="m 192.97124,82.73037 h 88.9214 v 10.406807 h -88.9214 z" /><path
         d="m 195.76466,90.101456 v -4.469214 h -1.46974 V 84.85238 h 3.79433 v 0.779862 h -1.51473 v 4.469214 z m 4.21426,0.07499 q -0.6074,0 -1.07981,-0.254955 -0.46492,-0.262453 -0.73487,-0.712374 -0.26246,-0.449921 -0.26246,-1.034818 0,-0.464918 0.14998,-0.847351 0.14997,-0.382433 0.41242,-0.659884 0.26996,-0.28495 0.63739,-0.434923 0.37494,-0.157473 0.80986,-0.157473 0.38243,0 0.71237,0.149974 0.32995,0.142475 0.5699,0.39743 0.24746,0.254955 0.37494,0.607393 0.13497,0.344939 0.12748,0.757367 l -0.008,0.329942 h -3.21694 l -0.17247,-0.614892 h 2.72202 l -0.11248,0.127478 v -0.179969 q -0.0225,-0.247456 -0.16497,-0.442422 -0.14247,-0.194966 -0.35993,-0.307446 -0.21747,-0.11248 -0.47242,-0.11248 -0.40493,0 -0.68238,0.157472 -0.27745,0.149974 -0.41993,0.449921 -0.14247,0.292449 -0.14247,0.727372 0,0.412428 0.17247,0.719873 0.17247,0.299948 0.48741,0.464919 0.31495,0.164971 0.72737,0.164971 0.29245,0 0.53991,-0.09748 0.25495,-0.09748 0.5474,-0.352438 l 0.38993,0.547403 q -0.17996,0.179969 -0.44242,0.314945 -0.25495,0.134976 -0.5474,0.217462 -0.28495,0.07499 -0.5624,0.07499 z m 2.55705,-0.07499 v -3.936807 h 0.77986 v 1.237282 l -0.075,-0.299947 q 0.0825,-0.28495 0.27745,-0.517409 0.20246,-0.232459 0.45742,-0.367436 0.26245,-0.134976 0.5399,-0.134976 0.12748,0 0.23996,0.0225 0.11998,0.0225 0.18747,0.05249 l -0.20247,0.839852 q -0.09,-0.03749 -0.20246,-0.05999 -0.10498,-0.02999 -0.20996,-0.02999 -0.20247,0 -0.38994,0.08249 -0.17996,0.07499 -0.32244,0.217462 -0.13498,0.134976 -0.21746,0.322443 -0.0825,0.179969 -0.0825,0.39743 v 2.174618 z m 3.72684,-1.229784 -0.0375,-0.839852 1.88217,-1.867171 h 1.04232 z m -0.70487,1.229784 v -5.549024 h 0.77236 v 5.549024 z m 2.65453,0 -1.48474,-1.732195 0.54741,-0.502412 1.92716,2.234607 z m 2.95449,0.07499 q -0.48741,0 -0.89234,-0.269952 -0.39743,-0.269952 -0.63739,-0.734871 -0.23996,-0.464918 -0.23996,-1.049815 0,-0.592396 0.23996,-1.049815 0.24746,-0.464918 0.65989,-0.727372 0.41992,-0.262454 0.93733,-0.262454 0.30745,0 0.5624,0.08998 0.25496,0.08998 0.44242,0.254955 0.19497,0.157473 0.31495,0.367436 0.12748,0.209963 0.15747,0.449921 l -0.17247,-0.05999 v -1.01982 h 0.77986 v 3.936807 h -0.77986 v -0.937335 l 0.17997,-0.05249 q -0.045,0.202464 -0.18747,0.39743 -0.13497,0.187467 -0.35244,0.337441 -0.20996,0.149973 -0.47241,0.239957 -0.25496,0.08998 -0.53991,0.08998 z m 0.20247,-0.712374 q 0.35243,0 0.62239,-0.17247 0.26995,-0.172469 0.41992,-0.472417 0.15748,-0.307445 0.15748,-0.697377 0,-0.382433 -0.15748,-0.68238 -0.14997,-0.299947 -0.41992,-0.472417 -0.26996,-0.172469 -0.62239,-0.172469 -0.34494,0 -0.6149,0.172469 -0.26245,0.17247 -0.41992,0.472417 -0.14998,0.299947 -0.14998,0.68238 0,0.389932 0.14998,0.697377 0.15747,0.299948 0.41992,0.472417 0.26996,0.17247 0.6149,0.17247 z m 4.67167,0.712374 q -0.5399,0 -0.96733,-0.262453 -0.41993,-0.269953 -0.66738,-0.727372 -0.24746,-0.464918 -0.24746,-1.057314 0,-0.592396 0.23996,-1.049815 0.24746,-0.464919 0.66738,-0.727372 0.41993,-0.269953 0.95233,-0.269953 0.29245,0 0.56241,0.09748 0.27745,0.08998 0.49491,0.254955 0.21746,0.157472 0.33744,0.352438 0.12748,0.187467 0.12748,0.382433 l -0.22496,0.015 v -2.632037 h 0.77236 v 5.549024 h -0.77236 v -0.937335 h 0.14997 q 0,0.179968 -0.11998,0.359936 -0.11998,0.17247 -0.32244,0.322444 -0.19497,0.149973 -0.45742,0.239957 -0.25496,0.08998 -0.52491,0.08998 z m 0.10498,-0.667382 q 0.35244,0 0.62239,-0.179968 0.26996,-0.179969 0.41993,-0.487415 0.15747,-0.314944 0.15747,-0.712374 0,-0.39743 -0.15747,-0.704876 -0.14997,-0.314945 -0.41993,-0.494913 -0.26995,-0.179968 -0.62239,-0.179968 -0.35244,0 -0.62239,0.179968 -0.26995,0.179968 -0.42742,0.494913 -0.14998,0.307446 -0.14998,0.704876 0,0.39743 0.14998,0.712374 0.15747,0.307446 0.42742,0.487415 0.26995,0.179968 0.62239,0.179968 z m 4.52171,0.667382 q -0.48741,0 -0.89234,-0.269952 -0.39743,-0.269952 -0.63739,-0.734871 -0.23996,-0.464918 -0.23996,-1.049815 0,-0.592396 0.23996,-1.049815 0.24746,-0.464918 0.65988,-0.727372 0.41993,-0.262454 0.93734,-0.262454 0.30744,0 0.5624,0.08998 0.25496,0.08998 0.44242,0.254955 0.19497,0.157473 0.31495,0.367436 0.12747,0.209963 0.15747,0.449921 l -0.17247,-0.05999 v -1.01982 h 0.77986 v 3.936807 h -0.77986 v -0.937335 l 0.17997,-0.05249 q -0.045,0.202464 -0.18747,0.39743 -0.13498,0.187467 -0.35244,0.337441 -0.20996,0.149973 -0.47241,0.239957 -0.25496,0.08998 -0.53991,0.08998 z m 0.20247,-0.712374 q 0.35243,0 0.62239,-0.17247 0.26995,-0.172469 0.41992,-0.472417 0.15747,-0.307445 0.15747,-0.697377 0,-0.382433 -0.15747,-0.68238 -0.14997,-0.299947 -0.41992,-0.472417 -0.26996,-0.172469 -0.62239,-0.172469 -0.34494,0 -0.6149,0.172469 -0.26245,0.17247 -0.41992,0.472417 -0.14998,0.299947 -0.14998,0.68238 0,0.389932 0.14998,0.697377 0.15747,0.299948 0.41992,0.472417 0.26996,0.17247 0.6149,0.17247 z m 3.02946,0.637388 v -3.936807 h 0.77236 v 0.809857 l -0.13497,0.08998 q 0.075,-0.262454 0.29244,-0.479915 0.21747,-0.224961 0.51741,-0.359937 0.29995,-0.142475 0.61489,-0.142475 0.44993,0 0.74987,0.179968 0.29995,0.17247 0.44992,0.532407 0.14998,0.359936 0.14998,0.90734 v 2.399578 h -0.77237 v -2.347087 q 0,-0.337441 -0.09,-0.554903 -0.09,-0.22496 -0.27745,-0.322443 -0.18747,-0.104981 -0.46492,-0.08998 -0.22496,0 -0.41243,0.07499 -0.18746,0.06749 -0.32994,0.194966 -0.13498,0.127477 -0.21746,0.299947 -0.075,0.164971 -0.075,0.359936 v 2.384581 h -0.38243 q -0.0975,0 -0.19497,0 -0.0975,0 -0.19496,0 z m 5.93895,1.799683 q -0.87735,0 -1.33477,-0.352438 -0.45742,-0.352438 -0.45742,-0.884844 0,-0.187467 0.0675,-0.359937 0.075,-0.164971 0.22496,-0.307446 0.14997,-0.142475 0.38243,-0.247456 l 0.015,0.05999 q -0.35244,-0.104981 -0.48741,-0.292448 -0.13498,-0.187467 -0.13498,-0.382433 0,-0.142475 0.0675,-0.269953 0.0675,-0.127477 0.22496,-0.22496 0.16497,-0.104981 0.44992,-0.157472 l -0.03,0.157472 q -0.24745,-0.22496 -0.38243,-0.412427 -0.13498,-0.187467 -0.18747,-0.359937 -0.0525,-0.179968 -0.0525,-0.374934 0,-0.382433 0.20247,-0.689879 0.20996,-0.314944 0.5549,-0.494912 0.35244,-0.187467 0.77986,-0.187467 0.14248,0 0.24746,0.0225 0.11248,0.015 0.22496,0.04499 0.11248,0.02999 0.23996,0.07499 l -0.35994,-0.06749 h 1.52973 v 0.629889 h -0.75737 l 0.11249,-0.194965 q 0.13497,0.232459 0.19496,0.382432 0.0675,0.142475 0.0825,0.254956 0.0225,0.104981 0.0225,0.22496 0,0.382433 -0.20996,0.704876 -0.20247,0.314945 -0.5549,0.502412 -0.34494,0.187467 -0.77237,0.187467 h -0.45742 q -0.15747,0 -0.24745,0.07499 -0.09,0.06749 -0.09,0.179969 0,0.134976 0.09,0.209963 0.09,0.07499 0.24745,0.07499 h 0.55491 q 0.83985,0 1.31226,0.337441 0.47992,0.329942 0.47992,0.899842 0,0.352438 -0.21746,0.629889 -0.20996,0.28495 -0.61489,0.442422 -0.39743,0.164971 -0.95983,0.164971 z m -0.008,-0.674881 q 0.47241,0 0.74986,-0.157473 0.27746,-0.157472 0.27746,-0.404928 0,-0.254955 -0.27746,-0.412428 -0.27745,-0.149973 -0.74986,-0.149973 -0.44992,0 -0.73487,0.149973 -0.27745,0.157473 -0.27745,0.412428 0,0.164971 0.12747,0.292448 0.12748,0.127478 0.35244,0.194966 0.23246,0.07499 0.53241,0.07499 z m -0.09,-3.01447 q 0.21746,0 0.38993,-0.08998 0.17247,-0.08998 0.26996,-0.247456 0.10498,-0.164971 0.10498,-0.382433 0,-0.194966 -0.10498,-0.352438 -0.0975,-0.157472 -0.26996,-0.247456 -0.17247,-0.09748 -0.38993,-0.09748 -0.21746,0 -0.38993,0.09748 -0.17247,0.08998 -0.27745,0.247456 -0.0975,0.157472 -0.0975,0.352438 0,0.209963 0.0975,0.374934 0.10498,0.157472 0.27745,0.254955 0.17247,0.08998 0.38993,0.08998 z m 4.94914,1.889668 v -5.24908 h 0.79486 l 1.91216,3.111952 -0.38243,-0.0075 1.93466,-3.104453 h 0.74987 v 5.249076 h -0.80986 v -2.152122 q 0,-0.674881 0.03,-1.214786 0.0375,-0.539905 0.11998,-1.072311 l 0.10498,0.277451 -1.71719,2.654533 h -0.49492 l -1.6647,-2.624538 0.0825,-0.307446 q 0.0825,0.502412 0.11248,1.034818 0.0375,0.524908 0.0375,1.252279 v 2.152122 z m 8.12107,0.07499 q -0.60739,0 -1.07981,-0.254955 -0.46492,-0.262453 -0.73487,-0.712374 -0.26245,-0.449921 -0.26245,-1.034818 0,-0.464918 0.14997,-0.847351 0.14997,-0.382433 0.41243,-0.659884 0.26995,-0.28495 0.63739,-0.434923 0.37493,-0.157473 0.80985,-0.157473 0.38244,0 0.71238,0.149974 0.32994,0.142475 0.5699,0.39743 0.24745,0.254955 0.37493,0.607393 0.13498,0.344939 0.12748,0.757367 l -0.008,0.329942 h -3.21693 l -0.17247,-0.614892 h 2.72202 l -0.11248,0.127478 v -0.179969 q -0.0225,-0.247456 -0.16497,-0.442422 -0.14248,-0.194966 -0.35994,-0.307446 -0.21746,-0.11248 -0.47242,-0.11248 -0.40493,0 -0.68238,0.157472 -0.27745,0.149974 -0.41992,0.449921 -0.14248,0.292449 -0.14248,0.727372 0,0.412428 0.17247,0.719873 0.17247,0.299948 0.48742,0.464919 0.31494,0.164971 0.72737,0.164971 0.29245,0 0.5399,-0.09748 0.25496,-0.09748 0.54741,-0.352438 l 0.38993,0.547403 q -0.17997,0.179969 -0.44242,0.314945 -0.25496,0.134976 -0.54741,0.217462 -0.28495,0.07499 -0.5624,0.07499 z m 2.54206,-0.07499 v -3.936807 h 0.77986 v 0.839852 l -0.14247,0.08998 q 0.06,-0.194966 0.18746,-0.374934 0.13498,-0.179968 0.32245,-0.314945 0.19496,-0.142475 0.41242,-0.22496 0.22496,-0.08249 0.45742,-0.08249 0.33744,0 0.5924,0.11248 0.25495,0.11248 0.41992,0.33744 0.16498,0.224961 0.23996,0.562401 l -0.11998,-0.02999 0.0525,-0.127478 q 0.0825,-0.17247 0.22496,-0.322443 0.14998,-0.157472 0.33744,-0.277451 0.18747,-0.119979 0.39743,-0.187467 0.20997,-0.06749 0.41243,-0.06749 0.44242,0 0.72737,0.179968 0.29245,0.179968 0.43493,0.547403 0.14997,0.367436 0.14997,0.914839 v 2.362085 h -0.77986 v -2.317092 q 0,-0.502412 -0.19497,-0.734871 -0.18746,-0.239958 -0.59239,-0.239958 -0.20997,0 -0.39743,0.07499 -0.17997,0.06749 -0.31495,0.194966 -0.13497,0.127477 -0.20996,0.299947 -0.075,0.164971 -0.075,0.367435 v 2.354586 h -0.77986 v -2.33209 q 0,-0.464918 -0.20246,-0.712374 -0.19497,-0.247457 -0.5699,-0.247457 -0.20997,0 -0.38994,0.07499 -0.17996,0.06749 -0.31494,0.194966 -0.13498,0.119978 -0.20996,0.292448 -0.075,0.164971 -0.075,0.359937 v 2.369583 z m 8.99091,0.07499 q -0.25495,0 -0.50991,-0.08248 -0.24746,-0.08249 -0.45742,-0.217462 -0.20246,-0.142475 -0.34494,-0.307446 -0.13497,-0.172469 -0.17997,-0.344939 l 0.19497,-0.104981 v 0.959831 h -0.77236 v -5.526528 h 0.77236 v 2.512058 l -0.11998,-0.06749 q 0.0375,-0.17247 0.16497,-0.329942 0.12748,-0.164971 0.32244,-0.292448 0.20247,-0.134977 0.43493,-0.209963 0.23246,-0.08249 0.47241,-0.08249 0.53241,0 0.94484,0.262454 0.41243,0.262454 0.65238,0.727372 0.23996,0.457419 0.23996,1.049815 0,0.592396 -0.23996,1.057314 -0.23246,0.464918 -0.64488,0.734871 -0.41243,0.262453 -0.92984,0.262453 z m -0.12748,-0.704875 q 0.34494,0 0.6149,-0.17247 0.26995,-0.179968 0.42742,-0.479916 0.15747,-0.307445 0.15747,-0.697377 0,-0.382433 -0.15747,-0.68238 -0.14997,-0.307446 -0.41993,-0.479915 -0.26995,-0.17247 -0.62239,-0.17247 -0.35243,0 -0.62239,0.17247 -0.26995,0.172469 -0.42742,0.479915 -0.15747,0.299947 -0.15747,0.68238 0,0.389932 0.15747,0.697377 0.15747,0.299948 0.42742,0.479916 0.26996,0.17247 0.62239,0.17247 z m 2.76701,0.629889 v -3.936807 h 0.77236 v 3.936807 z m 0.37493,-4.806654 q -0.24745,0 -0.38243,-0.127478 -0.13497,-0.127477 -0.13497,-0.359936 0,-0.217462 0.13497,-0.352438 0.14248,-0.134977 0.38243,-0.134977 0.24746,0 0.38244,0.127478 0.13497,0.127477 0.13497,0.359937 0,0.217461 -0.14247,0.352437 -0.13498,0.134977 -0.37494,0.134977 z m 2.77452,4.88164 q -0.49492,0 -0.89235,-0.172469 -0.39743,-0.17247 -0.65988,-0.50991 l 0.52491,-0.449921 q 0.22496,0.262454 0.48741,0.382432 0.26995,0.112481 0.60739,0.112481 0.13498,0 0.24746,-0.02999 0.11998,-0.03749 0.20246,-0.104982 0.09,-0.06749 0.13498,-0.157472 0.045,-0.09748 0.045,-0.209963 0,-0.194966 -0.14247,-0.314944 -0.075,-0.05249 -0.23996,-0.112481 -0.15747,-0.06749 -0.41243,-0.134976 -0.43492,-0.11248 -0.71237,-0.254955 -0.27745,-0.142475 -0.42743,-0.322443 -0.11248,-0.142475 -0.16497,-0.307446 -0.0525,-0.17247 -0.0525,-0.374934 0,-0.329942 0.18747,-0.584897 0.18747,-0.254955 0.50241,-0.39743 0.32244,-0.149974 0.71987,-0.149974 0.27745,0 0.54741,0.07499 0.27745,0.07499 0.50991,0.217462 0.23246,0.142475 0.38993,0.33744 l -0.44242,0.487414 q -0.14248,-0.142474 -0.31495,-0.247456 -0.16497,-0.11248 -0.33744,-0.17247 -0.17247,-0.05999 -0.31494,-0.05999 -0.15748,0 -0.28495,0.02999 -0.12748,0.02999 -0.21747,0.08998 -0.0825,0.05999 -0.12747,0.149973 -0.045,0.08998 -0.045,0.202465 0.007,0.09748 0.045,0.187467 0.045,0.08249 0.11998,0.142475 0.0825,0.05999 0.24745,0.127477 0.16497,0.06749 0.41993,0.127478 0.37493,0.09748 0.61489,0.217462 0.24746,0.11248 0.38993,0.262453 0.14998,0.142475 0.20996,0.329942 0.06,0.187467 0.06,0.419926 0,0.337441 -0.19496,0.607393 -0.18747,0.262454 -0.50991,0.412428 -0.32244,0.149973 -0.71987,0.149973 z m 2.2646,-0.07499 v -3.936807 h 0.77237 v 3.936807 z m 0.37494,-4.806654 q -0.24746,0 -0.38244,-0.127478 -0.13497,-0.127477 -0.13497,-0.359936 0,-0.217462 0.13497,-0.352438 0.14248,-0.134977 0.38244,-0.134977 0.24745,0 0.38243,0.127478 0.13497,0.127477 0.13497,0.359937 0,0.217461 -0.14247,0.352437 -0.13498,0.134977 -0.37493,0.134977 z m 2.16711,3.57687 -0.0375,-0.839852 1.88216,-1.867171 h 1.04232 z m -0.70488,1.229784 v -5.549024 h 0.77237 v 5.549024 z m 2.65454,0 -1.48474,-1.732195 0.5474,-0.502412 1.92716,2.234607 z m 2.27211,-1.229784 -0.0375,-0.839852 1.88217,-1.867171 h 1.04231 z m -0.70488,1.229784 v -5.549024 h 0.77237 v 5.549024 z m 2.65454,0 -1.48474,-1.732195 0.5474,-0.502412 1.92716,2.234607 z m 2.95449,0.07499 q -0.48741,0 -0.89234,-0.269952 -0.39743,-0.269952 -0.63739,-0.734871 -0.23996,-0.464918 -0.23996,-1.049815 0,-0.592396 0.23996,-1.049815 0.24746,-0.464918 0.65988,-0.727372 0.41993,-0.262454 0.93734,-0.262454 0.30744,0 0.5624,0.08998 0.25495,0.08998 0.44242,0.254955 0.19497,0.157473 0.31495,0.367436 0.12747,0.209963 0.15747,0.449921 l -0.17247,-0.05999 v -1.01982 h 0.77986 v 3.936807 h -0.77986 v -0.937335 l 0.17997,-0.05249 q -0.045,0.202464 -0.18747,0.39743 -0.13498,0.187467 -0.35244,0.337441 -0.20996,0.149973 -0.47242,0.239957 -0.25495,0.08998 -0.5399,0.08998 z m 0.20246,-0.712374 q 0.35244,0 0.62239,-0.17247 0.26996,-0.172469 0.41993,-0.472417 0.15747,-0.307445 0.15747,-0.697377 0,-0.382433 -0.15747,-0.68238 -0.14997,-0.299947 -0.41993,-0.472417 -0.26995,-0.172469 -0.62239,-0.172469 -0.34494,0 -0.61489,0.172469 -0.26245,0.17247 -0.41992,0.472417 -0.14998,0.299947 -0.14998,0.68238 0,0.389932 0.14998,0.697377 0.15747,0.299948 0.41992,0.472417 0.26995,0.17247 0.61489,0.17247 z m 3.02946,0.637388 v -3.936807 h 0.77237 v 0.809857 l -0.13498,0.08998 q 0.075,-0.262454 0.29245,-0.479915 0.21746,-0.224961 0.51741,-0.359937 0.29995,-0.142475 0.61489,-0.142475 0.44992,0 0.74987,0.179968 0.29995,0.17247 0.44992,0.532407 0.14997,0.359936 0.14997,0.90734 v 2.399578 h -0.77236 v -2.347087 q 0,-0.337441 -0.09,-0.554903 -0.09,-0.22496 -0.27746,-0.322443 -0.18746,-0.104981 -0.46491,-0.08998 -0.22496,0 -0.41243,0.07499 -0.18747,0.06749 -0.32994,0.194966 -0.13498,0.127477 -0.21746,0.299947 -0.075,0.164971 -0.075,0.359936 v 2.384581 h -0.38243 q -0.0975,0 -0.19497,0 -0.0975,0 -0.19497,0 z"
         id="text4"
         style="font-size:7.49868px;line-height:1.2;font-family:'Readex Pro';-inkscape-font-specification:'Readex Pro';font-feature-settings:'case', 'cv01', 'cv02', 'cv03', aalt;text-align:center;letter-spacing:0px;direction:rtl;text-anchor:middle;fill:#fefefa;stroke-width:0.0360661;stroke-linecap:round;stroke-linejoin:round;paint-order:markers stroke fill"
         transform="rotate(-11.480433)"
         aria-label="Terkadang Membisikkan" /><path
         id="path307"
         style="font-weight:500;font-size:24.9881px;line-height:1.2;font-family:'The Year of The Camel';-inkscape-font-specification:'The Year of The Camel Medium';font-feature-settings:'swsh';text-align:center;letter-spacing:0px;direction:rtl;text-anchor:middle;fill:#4f3322;stroke-width:0.136126;stroke-linecap:round;stroke-linejoin:round;paint-order:markers stroke fill"
         d="m 200.86371,73.856991 c 0.14429,0.359573 0.2545,0.731899 0.32918,1.112076 1.62437,0.653445 2.57658,2.050694 2.57658,4.166671 0,3.03386 -1.95278,4.596102 -5.04672,4.596102 h -3.78478 v -1.402498 c -0.94488,-0.03325 -1.8696,-0.282507 -2.70319,-0.728638 v 9.340515 c 0,1.98251 -0.2702,3.184012 -1.71204,3.784782 v 0.05994 h 9.16171 c 4.86618,0 8.02018,-1.502182 8.02018,-5.527312 0,-3.5445 -3.7249,-5.196321 -6.75876,-5.316471 3.03386,-0.27035 5.61723,-1.922765 5.61723,-4.806425 0,-3.386463 -2.32673,-4.90609 -5.69939,-5.278747 z m -5.92574,10.65568 h 4.29586 c 3.45439,0 5.58674,1.501843 5.58674,4.745963 0,3.24414 -2.13235,4.745964 -5.58674,4.745964 h -4.29586 z m 20.90674,-4.625558 c -3.09395,0 -5.19659,1.741879 -5.19659,3.694349 0,1.38177 0.96108,2.193147 2.19264,2.193147 0.87111,0 1.56235,-0.450715 1.71255,-1.351855 -0.12016,0.0601 -0.27052,0.08992 -0.39067,0.08992 -0.84107,0 -1.38183,-0.660971 -1.38183,-1.592151 0,-1.32168 0.84106,-2.462899 3.0639,-2.462899 2.46313,0 3.48454,1.86226 3.48454,4.05505 v 1.71204 l -2.28307,0.420646 c -3.57455,0.66084 -6.96856,1.411984 -6.96856,4.626074 0,1.75305 0.91459,2.866395 2.26807,3.383773 -0.0339,-0.23342 -0.0544,-0.468587 -0.0615,-0.70435 0.008,-0.923523 0.22251,-1.833557 0.62787,-2.663403 -0.007,-0.1021 -0.0109,-0.20652 -0.0109,-0.31626 0,-2.13271 1.44145,-3.214051 4.41523,-3.784781 l 2.0128,-0.390674 -0.0248,1.023193 c 0.98499,0.133447 1.92336,0.50213 2.73575,1.07487 0.0249,-1.16056 0.0527,-2.430422 0.0527,-3.93051 0,-3.57455 -2.34323,-5.076176 -6.24819,-5.076176 z m 8.81445,13.887525 c 0.002,0.05097 0.004,0.101956 0.005,0.152962 0.0452,-0.05385 0.0925,-0.107079 0.13229,-0.163297 v -0.05994 c -0.042,0.02624 -0.0899,0.04787 -0.13694,0.07028 z m 0.55755,-21.487403 v 0.0601 c 1.44184,0.60076 1.86236,1.5019 1.86236,3.21407 v 15.95029 c 0,1.98253 -0.27034,2.61332 -1.71217,3.21409 v 0.0601 h 6.06772 v -0.0601 c -1.44183,-0.60077 -1.71218,-1.23156 -1.71218,-3.21409 v -4.41561 c 0,-3.42436 1.74222,-5.70726 4.14526,-5.70726 2.37303,0 3.18406,1.83233 3.18406,3.96504 v 6.15783 c 0,1.98253 -0.27034,2.61332 -1.71218,3.21409 v 0.0601 h 6.06771 v -0.0601 c -1.44183,-0.60077 -1.71217,-1.23156 -1.71217,-3.21409 v -6.39814 c 0,-3.45439 -1.92244,-5.22664 -4.68596,-5.22664 -2.58329,0 -4.4757,1.6521 -5.28672,4.47569 v -12.07535 z m 32.80174,21.41723 c -0.24031,0.15019 -0.57073,0.24031 -0.90115,0.24031 -1.26161,0 -1.8924,-0.84107 -1.8924,-2.49318 0,-1.83232 0.0901,-3.81484 0.0901,-6.48824 0,-3.57455 -2.34298,-5.07646 -6.24794,-5.07646 -3.09394,0 -5.1966,1.74222 -5.1966,3.69469 0,1.38177 0.96121,2.19279 2.19278,2.19279 0.87111,0 1.56198,-0.45057 1.71218,-1.35171 -0.12015,0.0601 -0.27035,0.0901 -0.3905,0.0901 -0.84106,0 -1.38175,-0.66084 -1.38175,-1.59202 0,-1.32168 0.84106,-2.46314 3.06389,-2.46314 2.46313,0 3.48444,1.86237 3.48444,4.05516 v 1.71218 l -2.28291,0.42053 c -3.57455,0.66084 -6.96887,1.4118 -6.96887,4.62589 0,2.5232 1.89241,3.72473 4.26543,3.72473 2.52321,0 4.68596,-1.95247 5.01638,-4.05515 0,0.33042 0.0601,1.32167 0.0601,1.44183 0.1502,1.59203 1.05135,2.64336 2.6734,2.64336 1.23157,0 2.19279,-0.54069 2.70345,-1.2616 z m -5.46695,-6.90879 -0.0601,2.49318 c -0.0601,2.79355 -1.92245,4.38557 -3.81485,4.38557 -1.44184,0 -2.55325,-0.72091 -2.55325,-2.70343 0,-2.13271 1.44183,-3.21409 4.41561,-3.78482 z m 11.53467,-6.30801 c 2.40306,0 4.1753,1.95247 5.25668,4.35553 h 0.0601 v -4.9563 c -0.51065,0.45057 -0.93119,0.81104 -1.50191,0.81104 -1.0213,0 -1.95248,-0.81104 -3.81485,-0.81104 -2.58329,0 -4.92626,1.44183 -4.92626,4.0852 0,2.25286 1.23156,3.69469 4.68595,4.50572 2.61332,0.60077 4.23539,1.23158 4.23539,3.00382 0,1.89241 -1.47187,3.00382 -3.27417,3.00382 -2.76351,0 -4.53576,-1.98251 -5.82741,-5.10649 h -0.0601 l 0.33042,5.70726 c 0.36047,-0.42054 0.72092,-0.78099 1.29165,-0.78099 0.93118,0 2.19279,0.78099 4.26542,0.78099 2.79356,0 5.43691,-1.44183 5.43691,-4.41562 0,-2.40305 -1.38175,-3.75478 -5.37683,-4.68596 -3.0639,-0.72091 -3.63462,-1.44183 -3.63462,-2.9137 0,-1.38176 0.99126,-2.58328 2.85363,-2.58328 z m 20.4298,3.195599 c -0.41251,1.478924 -1.35991,2.751769 -2.65824,3.571358 l -0.0491,2.033985 c -0.0601,2.79355 -1.92235,4.385779 -3.81476,4.385779 -1.44183,0 -2.55333,-0.720675 -2.55333,-2.703195 0,-1.354453 0.58376,-2.284144 1.76992,-2.92902 -0.47881,-0.109758 -0.94286,-0.27612 -1.38235,-0.495577 -1.87635,0.663514 -3.21117,1.709745 -3.21117,3.724837 0,2.5232 1.89235,3.724838 4.26537,3.724838 2.52321,0 4.68582,-1.952887 5.01624,-4.055567 0,0.33042 0.0605,1.32213 0.0605,1.44229 0.15018,1.59203 1.05115,2.643249 2.67322,2.643249 1.23156,0 2.19306,-0.541028 2.70371,-1.261938 v -0.05994 c -0.2403,0.15019 -0.57082,0.240295 -0.90124,0.240295 -1.2616,0 -1.89239,-0.840761 -1.89239,-2.492871 0,-1.83232 0.0899,-3.815093 0.0899,-6.488493 0,-0.460974 -0.04,-0.886765 -0.11627,-1.280025 z m 20.71656,-9.821106 c 0.2238,0.382023 0.41582,0.781794 0.57413,1.195276 1.5789,0.704442 2.43551,2.140402 2.43551,4.379061 0,3.357987 -1.94244,4.557012 -4.77749,4.674133 -0.35227,0.295824 -0.72915,0.561027 -1.12655,0.792717 h 0.10697 c 2.61333,0 3.54439,1.80244 4.29535,3.93516 l 0.93121,2.703194 c 0.51065,1.44183 1.08123,2.733607 1.71204,3.244247 h 4.5961 v -0.05994 c -1.83233,-0.66084 -2.76349,-1.351895 -3.54449,-3.694865 l -0.84129,-2.52336 c -0.72091,-2.13271 -2.22261,-3.634399 -5.2865,-3.874699 3.36428,-0.12016 6.90863,-1.50208 6.90863,-5.34696 0,-3.480194 -2.55388,-5.037691 -5.98362,-5.423959 z m -6.42235,12.104688 c -0.18388,0.02236 -0.36847,0.03839 -0.55345,0.04806 -0.72783,-0.01017 -1.45096,-0.118636 -2.14974,-0.322461 v 5.248775 c 0,1.98251 -0.27021,3.184012 -1.71204,3.784782 v 0.05994 h 6.12779 v -0.05994 c -1.44184,-0.60077 -1.71256,-1.802272 -1.71256,-3.784782 z m 27.06456,1.910209 c 0,3.42436 -1.92246,5.64718 -4.26543,5.64718 -2.25287,0 -3.06389,-1.98252 -3.06389,-3.99508 v -9.34188 h -4.50574 v 0.0601 c 1.44183,0.60076 1.86237,1.50191 1.86237,3.21408 v 6.39814 c 0,3.45439 1.92244,5.22665 4.56581,5.22665 2.64336,0 4.68595,-1.68214 5.40688,-4.65592 v 4.35553 h 4.80611 v -0.0601 c -1.4118,-0.45057 -2.16275,-1.05134 -2.16275,-2.91371 v -11.62478 h -4.50573 v 0.0601 c 1.44183,0.60076 1.86237,1.50191 1.86237,3.21408 z m 11.47456,-7.38939 c 2.40306,0 4.17531,1.95247 5.25669,4.35553 h 0.0601 v -4.9563 c -0.51064,0.45057 -0.93118,0.81104 -1.50191,0.81104 -1.0213,0 -1.95248,-0.81104 -3.81485,-0.81104 -2.58329,0 -4.92627,1.44183 -4.92627,4.0852 0,2.25286 1.23157,3.69469 4.68596,4.50572 2.61333,0.60077 4.23539,1.23158 4.23539,3.00382 0,1.89241 -1.47187,3.00382 -3.27416,3.00382 -2.76352,0 -4.53577,-1.98251 -5.82742,-5.10649 h -0.0601 l 0.33042,5.70726 c 0.36046,-0.42054 0.72091,-0.78099 1.29164,-0.78099 0.93119,0 2.19279,0.78099 4.26543,0.78099 2.79355,0 5.43691,-1.44183 5.43691,-4.41562 0,-2.40305 -1.38176,-3.75478 -5.37684,-4.68596 -3.06389,-0.72091 -3.63462,-1.44183 -3.63462,-2.9137 0,-1.38176 0.99126,-2.58328 2.85363,-2.58328 z m 9.34188,-5.43692 c 0,1.05133 0.81102,1.86237 1.8924,1.86237 1.08138,0 1.89241,-0.81104 1.89241,-1.86237 0,-1.05134 -0.81103,-1.86237 -1.89241,-1.86237 -1.08138,0 -1.8924,0.81103 -1.8924,1.86237 z m -0.67664,19.735201 c -0.0232,-0.05377 -0.0456,-0.107861 -0.0672,-0.162264 -0.0733,0.03391 -0.13718,0.06883 -0.21756,0.102319 v 0.05994 z m 1.42782,-6.626986 c 0.73803,-0.7275 1.64689,-1.258071 2.64325,-1.543058 v -6.428548 h -4.50567 v 0.05994 c 1.44184,0.60076 1.86242,1.502104 1.86242,3.214274 z m 12.01529,-8.271847 c -3.09394,0 -5.1971,1.741879 -5.1971,3.694349 0,1.38177 0.96158,2.193147 2.19314,2.193147 0.87111,0 1.56186,-0.450715 1.71204,-1.351855 -0.12015,0.0601 -0.27051,0.08992 -0.39067,0.08992 -0.84107,0 -1.38131,-0.660971 -1.38131,-1.592151 0,-1.32168 0.84107,-2.462899 3.0639,-2.462899 2.46313,0 3.48402,1.86226 3.48402,4.05505 v 1.71204 l -2.28255,0.420646 c -1.74708,0.32299 -3.44836,0.669473 -4.73408,1.312582 0.40537,0.36587 0.76054,0.78377 1.05627,1.242818 0.64072,-1.01248 1.94563,-1.630035 3.94808,-2.014347 l 2.01228,-0.390674 -0.0599,2.492871 c -0.0601,2.79355 -1.92235,4.385779 -3.81476,4.385779 -0.43078,0 -0.83087,-0.06616 -1.18184,-0.20929 -0.0813,0.519908 -0.22855,1.027329 -0.43821,1.509985 0.16697,0.01276 0.33589,0.02119 0.50849,0.02119 2.52321,0 4.68581,-1.952887 5.01623,-4.055567 0,0.33042 0.0605,1.32213 0.0605,1.44229 0.15018,1.59203 1.05118,2.643249 2.67323,2.643249 1.23157,0 2.19307,-0.541028 2.70371,-1.261938 v -0.05994 c -0.2403,0.15019 -0.57082,0.240295 -0.90124,0.240295 -1.26161,0 -1.89239,-0.840761 -1.89239,-2.492871 0,-1.83232 0.0899,-3.815093 0.0899,-6.488493 0,-3.57455 -2.34271,-5.076176 -6.24768,-5.076176 z M 224.99474,62.540507 v -0.02888 c -0.69331,-0.288881 -0.82331,-0.866636 -0.82331,-1.819926 v -2.469903 l 0.90997,-0.866631 3.10542,3.813176 c 0.24555,0.303323 0.38999,0.505538 0.38999,0.779971 0,0.288875 -0.10111,0.418872 -0.37554,0.563313 v 0.02888 h 3.27876 v -0.02888 c -0.57776,-0.245548 -1.24217,-0.866636 -1.86326,-1.588826 l -3.66874,-4.405379 2.75877,-2.614333 c 0.67887,-0.621088 1.21329,-1.054403 2.25325,-1.444386 v -0.02889 h -2.831 v 0.02889 c 0.33221,0.144435 0.51998,0.37554 0.51998,0.649973 0,0.2311 -0.15888,0.49109 -0.41887,0.736638 l -4.05873,3.899836 v -3.466521 c 0,-0.953295 0.13,-1.531051 0.82331,-1.819926 v -0.02889 h -2.94655 v 0.02889 c 0.69331,0.288875 0.8233,0.866631 0.8233,1.819926 v 6.413072 c 0,0.95329 -0.12999,1.531045 -0.8233,1.819926 v 0.02888 z m 14.03943,-0.51998 c -0.11555,0.07222 -0.27444,0.115555 -0.43332,0.115555 -0.60665,0 -0.90996,-0.40443 -0.90996,-1.198843 0,-0.881072 0.0433,-1.834368 0.0433,-3.11987 0,-1.718819 -1.12662,-2.441014 -3.00432,-2.441014 -1.48771,0 -2.49878,0.837746 -2.49878,1.776593 0,0.664421 0.4622,1.054403 1.0544,1.054403 0.41887,0 0.75108,-0.216657 0.8233,-0.649973 -0.0578,0.02889 -0.13,0.04333 -0.18777,0.04333 -0.40443,0 -0.66442,-0.317765 -0.66442,-0.765528 0,-0.635525 0.40443,-1.184395 1.47327,-1.184395 1.1844,0 1.67549,0.89552 1.67549,1.949923 v 0.823298 l -1.09773,0.202215 c -1.71882,0.317765 -3.35098,0.678862 -3.35098,2.22435 0,1.213286 0.90997,1.791041 2.05103,1.791041 1.21328,0 2.25324,-0.938853 2.41213,-1.949918 0,0.158877 0.0289,0.635525 0.0289,0.6933 0.0722,0.765528 0.50554,1.27106 1.2855,1.27106 0.5922,0 1.05441,-0.25999 1.29996,-0.60664 z m -2.62879,-3.322086 -0.0289,1.198843 c -0.0289,1.343278 -0.92441,2.108801 -1.83437,2.108801 -0.6933,0 -1.22773,-0.34665 -1.22773,-1.299946 0,-1.025512 0.69331,-1.545493 2.12325,-1.819925 z m 7.25082,1.574383 c -0.18777,1.083288 -0.67886,1.675486 -1.38661,1.675486 -0.64997,0 -0.99663,-0.476648 -0.99663,-1.415496 v -4.636479 h 2.18103 l 0.0722,-0.37554 h -2.25324 v -2.484346 h -0.11555 c -0.20221,1.429943 -0.95329,2.527679 -2.16658,2.773221 v 0.08666 h 1.01107 v 4.679807 c 0,1.401058 0.70776,2.108806 1.83438,2.108806 1.29994,0 1.81992,-1.025513 1.93547,-2.412124 z m 6.71508,-0.308009 c -0.43401,0.18936 -0.89606,0.306488 -1.36787,0.346749 -0.18414,1.084441 -0.98271,1.69447 -1.79421,1.69447 -0.6933,0 -1.22732,-0.346366 -1.22732,-1.299662 0,-0.425761 0.12119,-0.763435 0.36329,-1.033529 -0.2094,-0.130052 -0.40734,-0.27769 -0.5917,-0.441316 -0.67687,0.323601 -1.12964,0.807078 -1.12964,1.619022 0,1.213286 0.90997,1.791105 2.05104,1.791105 1.21328,0 2.25337,-0.938686 2.41225,-1.949751 0,0.158877 0.0289,0.635206 0.0289,0.692981 0.0722,0.765528 0.50522,1.27124 1.28519,1.27124 0.59219,0 1.05463,-0.260031 1.30018,-0.606681 v -0.02894 c -0.11555,0.07222 -0.27468,0.115755 -0.43356,0.115755 -0.60664,0 -0.90951,-0.40448 -0.90951,-1.198893 0,-0.309032 0.006,-0.634531 0.0129,-0.972551 z m 5.9522,0.510219 v -7.207479 l 4.17428,9.431835 h 0.0578 l 3.8854,-9.431835 v 7.380809 c 0,0.953296 -0.27444,1.574378 -0.96774,1.863259 v 0.02888 h 3.19206 v -0.02888 c -0.6933,-0.288881 -0.96774,-0.909963 -0.96774,-1.863259 v -6.369739 c 0,-0.953295 0.13,-1.531051 0.8233,-1.819926 v -0.02889 h -2.13769 l -3.37986,8.189665 -3.6254,-8.189665 h -2.28213 v 0.02889 c 0.6933,0.288875 0.82329,0.866631 0.82329,1.819926 v 6.196409 c 0,1.097736 -0.38998,1.747708 -1.08328,2.036589 v 0.02888 h 2.571 v -0.02888 c -0.6933,-0.288881 -1.08329,-0.938853 -1.08329,-2.036589 z m 18.48813,1.545493 c -0.11555,0.07222 -0.27443,0.115555 -0.43332,0.115555 -0.60664,0 -0.90996,-0.40443 -0.90996,-1.198843 0,-0.881072 0.0433,-1.834368 0.0433,-3.11987 0,-1.718819 -1.12662,-2.441014 -3.00433,-2.441014 -1.48771,0 -2.49878,0.837746 -2.49878,1.776593 0,0.664421 0.4622,1.054403 1.0544,1.054403 0.41887,0 0.75108,-0.216657 0.8233,-0.649973 -0.0578,0.02889 -0.13,0.04333 -0.18777,0.04333 -0.40443,0 -0.66442,-0.317765 -0.66442,-0.765528 0,-0.635525 0.40443,-1.184395 1.47327,-1.184395 1.1844,0 1.67549,0.89552 1.67549,1.949923 v 0.823298 l -1.09773,0.202215 c -1.71882,0.317765 -3.35097,0.678862 -3.35097,2.22435 0,1.213286 0.90996,1.791041 2.05102,1.791041 1.21329,0 2.25324,-0.938853 2.41213,-1.949918 0,0.158877 0.0289,0.635525 0.0289,0.6933 0.0722,0.765528 0.50553,1.27106 1.2855,1.27106 0.5922,0 1.0544,-0.25999 1.29995,-0.60664 z m -2.62878,-3.322086 -0.0289,1.198843 c -0.0289,1.343278 -0.9244,2.108801 -1.83436,2.108801 -0.69331,0 -1.22773,-0.34665 -1.22773,-1.299946 0,-1.025512 0.6933,-1.545493 2.12325,-1.819925 z m 7.58304,-3.321976 c -1.24217,0 -2.15198,0.794086 -2.54196,2.151806 v -2.007629 h -2.1668 v 0.02894 c 0.6933,0.28888 0.89556,0.722345 0.89556,1.545642 v 3.871082 c 0,0.95329 -0.12991,1.256244 -0.82321,1.545125 v 0.02894 h 2.91765 v -0.02894 c -0.69331,-0.288881 -0.8232,-0.591835 -0.8232,-1.545125 V 58.84292 c 0,-1.6466 0.83765,-2.744535 1.99316,-2.744535 1.14106,0 1.53117,0.881347 1.53117,1.90686 v 0.338481 c 0.38932,-0.255297 0.81714,-0.446353 1.2671,-0.565857 -0.0415,-1.586097 -0.95135,-2.401404 -2.24947,-2.401404 z m 4.37648,-2.325568 c 0,0.505533 0.38999,0.895515 0.90997,0.895515 0.51998,0 0.90996,-0.389982 0.90996,-0.895515 0,-0.505538 -0.38998,-0.89552 -0.90996,-0.89552 -0.51998,0 -0.90997,0.389982 -0.90997,0.89552 z m 0.36121,4.790017 c 0.45818,0.152926 0.88765,0.381194 1.27073,0.675411 v -2.995683 h -2.16628 v 0.02894 c 0.69331,0.28888 0.89555,0.722345 0.89555,1.545642 z m 5.53189,-2.175679 c 1.1555,0 2.00769,0.938848 2.52767,2.094359 h 0.0289 v -2.383239 c -0.24554,0.216658 -0.44776,0.389983 -0.72219,0.389983 -0.49109,0 -0.93886,-0.389983 -1.83437,-0.389983 -1.24218,0 -2.3688,0.693305 -2.3688,1.964366 0,1.083288 0.5922,1.776593 2.25324,2.166575 1.25662,0.288881 2.03659,0.592198 2.03659,1.444386 0,0.909963 -0.70775,1.444385 -1.57438,1.444385 -1.32884,0 -2.18102,-0.95329 -2.80211,-2.455455 h -0.0289 l 0.15888,2.744336 c 0.17333,-0.202216 0.34666,-0.375541 0.62109,-0.375541 0.44776,0 1.0544,0.375541 2.05102,0.375541 1.34328,0 2.61434,-0.693306 2.61434,-2.123249 0,-1.15551 -0.66441,-1.805483 -2.58545,-2.25324 -1.47327,-0.346656 -1.7477,-0.693306 -1.7477,-1.401053 0,-0.664421 0.47664,-1.242171 1.37216,-1.242171 z m 7.10639,6.875272 h 3.85651 c 3.03321,0 5.58976,-1.661043 5.58976,-5.170901 0,-3.264311 -2.45545,-4.939797 -5.93642,-4.939797 h -3.50985 v 0.02888 c 0.6933,0.288875 0.82329,0.86663 0.82329,1.819926 v 6.413072 c 0,0.95329 -0.12999,1.531045 -0.82329,1.819925 z m 2.12324,-0.37554 v -9.359618 h 1.25662 c 2.61434,0 4.63648,1.516603 4.63648,4.564257 0,3.509858 -2.03659,4.795361 -4.41982,4.795361 z m 15.46937,-0.14444 c -0.11555,0.07222 -0.27444,0.115555 -0.43332,0.115555 -0.60664,0 -0.90996,-0.40443 -0.90996,-1.198843 0,-0.881072 0.0433,-1.834368 0.0433,-3.11987 0,-1.718819 -1.12662,-2.441014 -3.00432,-2.441014 -1.48772,0 -2.49879,0.837746 -2.49879,1.776593 0,0.664421 0.4622,1.054403 1.0544,1.054403 0.41887,0 0.75108,-0.216657 0.8233,-0.649973 -0.0578,0.02889 -0.12999,0.04333 -0.18777,0.04333 -0.40443,0 -0.66441,-0.317765 -0.66441,-0.765528 0,-0.635525 0.40442,-1.184395 1.47327,-1.184395 1.18439,0 1.67548,0.89552 1.67548,1.949923 v 0.823298 l -1.09773,0.202215 c -1.71882,0.317765 -3.35097,0.678862 -3.35097,2.22435 0,1.213286 0.90996,1.791041 2.05103,1.791041 1.21328,0 2.25324,-0.938853 2.41212,-1.949918 0,0.158877 0.0289,0.635525 0.0289,0.6933 0.0722,0.765528 0.50554,1.27106 1.28551,1.27106 0.59219,0 1.0544,-0.25999 1.29995,-0.60664 z m -2.62878,-3.322086 -0.0289,1.198843 c -0.0289,1.343278 -0.9244,2.108801 -1.83437,2.108801 -0.6933,0 -1.22772,-0.34665 -1.22772,-1.299946 0,-1.025512 0.6933,-1.545493 2.12324,-1.819925 z m 2.83118,-6.976533 v 0.02894 c 0.69331,0.28888 0.89555,0.722344 0.89555,1.545642 v 6.999056 c 0.33705,-0.484916 0.76943,-0.89602 1.27072,-1.208195 V 51.72191 Z m 6.25388,7.11016 c 0.14762,0.06752 0.29133,0.143256 0.43047,0.226859 0.20901,-0.06635 0.44011,-0.123473 0.69608,-0.172599 l 0.9679,-0.188102 -0.0289,1.198893 c -0.006,0.263831 -0.0455,0.504604 -0.11162,0.722437 0.0429,0.07491 0.0836,0.151078 0.12195,0.228409 0.0129,-0.05192 0.0248,-0.10363 0.0331,-0.156062 0,0.05018 0.005,0.1525 0.009,0.242879 0.20115,0.428732 0.33085,0.88747 0.38395,1.358057 0.21558,0.230925 0.52261,0.363285 0.92088,0.363285 0.59219,0 1.05464,-0.260031 1.30018,-0.606681 v -0.02894 c -0.11555,0.07222 -0.27417,0.115755 -0.43305,0.115755 -0.60664,0 -0.91002,-0.40448 -0.91002,-1.198893 0,-0.881072 0.0429,-1.834721 0.0429,-3.120223 0,-1.718819 -1.12625,-2.440678 -3.00395,-2.440678 -1.48772,0 -2.49908,0.837789 -2.49908,1.776636 0,0.664421 0.46253,1.054199 1.05472,1.054199 0.41888,0 0.75099,-0.216774 0.82321,-0.65009 -0.0578,0.02889 -0.13033,0.04341 -0.18811,0.04341 -0.40443,0 -0.66404,-0.317564 -0.66404,-0.765327 0,-0.635525 0.40445,-1.184424 1.4733,-1.184424 1.18439,0 1.67535,0.895348 1.67535,1.949751 v 0.823206 l -1.09761,0.202572 c -0.34106,0.06305 -0.67468,0.130292 -0.99684,0.205672 z m 11.62743,-1.30358 c -0.1011,-1.415495 -0.85218,-2.152133 -2.07991,-2.152133 -1.24217,0 -2.09436,0.794413 -2.41213,2.152133 v -2.007693 h -2.16658 v 0.02889 c 0.69331,0.28888 0.89552,0.722196 0.89552,1.545493 v 3.870957 c 0,0.95329 -0.12999,1.256612 -0.82329,1.545493 v 0.02888 h 2.91765 v -0.02888 c -0.6933,-0.288881 -0.8233,-0.592203 -0.8233,-1.545493 v -2.123249 c 0,-1.6466 0.70775,-2.744331 1.86326,-2.744331 1.14107,0 1.37217,0.881073 1.37217,1.906586 v 2.960994 c 0,0.95329 -0.13,1.256612 -0.8233,1.545493 v 0.02888 h 2.91766 v -0.02888 c -0.69331,-0.288881 -0.8233,-0.592203 -0.8233,-1.545493 v -2.123249 c 0,-1.6466 0.70774,-2.744331 1.86325,-2.744331 1.14107,0 1.37217,0.881073 1.37217,1.906586 v 2.960994 c 0,0.95329 -0.13,1.256612 -0.8233,1.545493 v 0.02888 h 2.91766 v -0.02888 c -0.69331,-0.288881 -0.8233,-0.592203 -0.8233,-1.545493 v -3.076544 c 0,-1.661043 -0.76553,-2.513231 -2.09436,-2.513231 -1.24217,0 -2.1088,0.794413 -2.42657,2.152133 z m -178.88182,-5.472234 -2.80913,6.435783 c -0.87111,1.982522 -1.65211,3.394346 -2.8236,3.995105 v 0.05994 h 4.74596 v -0.05994 c -0.84108,-0.360453 -1.44177,-1.111651 -1.44177,-2.012797 0,-0.750955 0.24023,-1.44194 0.51056,-2.072742 l 1.23145,-2.883545 h 9.01186 l 1.59163,3.574459 c 0.33042,0.720917 0.51108,1.321863 0.51108,1.802474 0,0.720917 -0.51072,1.231698 -1.38183,1.592151 v 0.05994 h 6.24768 v -0.05994 c -1.17148,-0.600759 -1.53178,-1.351708 -2.43292,-3.304191 l -5.26377,-11.614795 c -0.26106,1.070639 -0.80321,2.052176 -1.57044,2.843237 l 1.93786,4.325834 h -8.32042 l 1.06712,-2.50579 c -0.27405,-0.04018 -0.5451,-0.0987 -0.81132,-0.175183 z m 16.14475,-12.008053 v 0.06046 c 1.44183,0.600764 1.86242,1.501579 1.86242,3.213757 v 15.950448 c 0,1.982521 -0.27021,2.613509 -1.71204,3.214274 v 0.05994 h 6.06785 v -0.05994 c -1.44183,-0.600765 -1.71256,-1.231753 -1.71256,-3.214274 V 40.048201 Z m 28.68662,7.600053 c -3.09394,0 -5.19658,1.741865 -5.19658,3.694349 0,1.381757 0.96107,2.193147 2.19263,2.193147 0.87111,0 1.56238,-0.450709 1.71256,-1.351855 -0.12015,0.06008 -0.27052,0.08992 -0.39068,0.08992 -0.84107,0 -1.38182,-0.66045 -1.38182,-1.591634 0,-1.32168 0.84106,-2.463416 3.06389,-2.463416 2.46313,0 3.48454,1.862261 3.48454,4.05505 v 1.712557 l -2.28306,0.420129 c -3.57454,0.660841 -6.96857,1.411987 -6.96857,4.626074 0,2.523209 1.89236,3.724838 4.26538,3.724838 1.38532,0 2.65937,-0.590879 3.58376,-1.469678 -0.0149,-0.126409 -0.026,-0.253249 -0.0331,-0.380339 0.008,-0.171254 0.0229,-0.342105 0.045,-0.512113 -0.69557,0.676806 -1.58548,1.040247 -2.4846,1.040247 -1.44183,0 -2.55282,-0.720674 -2.55282,-2.703195 0,-2.132712 1.44146,-3.214057 4.41524,-3.784782 l 2.01279,-0.390673 -0.0594,2.474784 c 0.72996,-0.906555 1.70071,-1.588948 2.80086,-1.968872 0.0125,-0.727406 0.0222,-1.488801 0.0222,-2.338359 0,-3.574545 -2.34323,-5.076176 -6.2482,-5.076176 z m -21.86791,0.30024 v 0.05995 c 0.99126,0.690878 1.2918,1.111667 2.28306,3.184302 l 3.89434,8.140071 c 1.07286,0.313236 2.0409,0.911095 2.80138,1.730127 l 4.17804,-9.569958 c 0.93118,-2.102674 1.35161,-2.793664 2.40295,-3.484542 v -0.05995 h -4.08502 v 0.05995 c 0.84106,0.33042 1.20148,0.991509 1.20148,1.772502 0,0.480612 -0.11988,1.020974 -0.36019,1.561662 l -3.45457,8.020182 -3.84473,-8.170044 c -0.30038,-0.66084 -0.51108,-1.411847 -0.51108,-1.862419 0,-0.600764 0.15028,-0.991463 0.90124,-1.321883 v -0.05995 z" /><path
         d="m 284.51597,83.683264 c -0.51506,-2.656206 -2.73003,-3.796151 -6.13141,-3.796151 -3.09393,0 -5.1971,1.741879 -5.1971,3.694349 0,1.38177 0.96158,2.193147 2.19315,2.193147 0.8711,0 1.56185,-0.450715 1.71204,-1.351855 -0.12015,0.0601 -0.27052,0.08992 -0.39068,0.08992 -0.84107,0 -1.38131,-0.660971 -1.38131,-1.592151 0,-1.32168 0.84108,-2.462899 3.0639,-2.462899 2.46313,0 3.48402,1.86226 3.48402,4.05505 v 1.71204 l -2.28254,0.420646 c -1.33347,0.246523 -2.64147,0.506441 -3.75792,0.901237 a 6.1901765,6.1901765 0 0 0 1.38235,0.495577 c 0.68156,-0.37054 1.56066,-0.647494 2.64583,-0.855761 l 2.01228,-0.390674 -0.0109,0.458886 a 6.1901765,6.1901765 0 0 0 2.65824,-3.571358 z"
         style="fill:#4fa5b6;stroke-width:0.0891277;stroke-linecap:round;stroke-linejoin:round;paint-order:markers stroke fill"
         id="path286" /><path
         d="m 204.99369,55.062789 a 6.1901765,6.1901765 0 0 0 -2.80086,1.968872 l -5.2e-4,0.0186 c -0.0315,1.466281 -0.56224,2.597325 -1.33067,3.345016 a 6.1901765,6.1901765 0 0 0 -0.045,0.512113 6.1901765,6.1901765 0 0 0 0.0331,0.380339 c 0.75926,-0.721828 1.28346,-1.637138 1.43247,-2.585372 0,0.33042 0.0599,1.321619 0.0599,1.441772 0.15019,1.592024 1.05168,2.64325 2.67374,2.64325 1.23157,0 2.19255,-0.540505 2.70319,-1.261422 v -0.06046 c -0.2403,0.15019 -0.5708,0.240295 -0.90123,0.240295 -1.2616,0 -1.89239,-0.840769 -1.89239,-2.492871 0,-1.250049 0.0415,-2.588531 0.0682,-4.150134 z"
         style="fill:#4eaabc;stroke-width:0.0891277;stroke-linecap:round;stroke-linejoin:round;paint-order:markers stroke fill"
         id="path56" /><path
         d="m 323.26657,60.847965 a 4.3441954,4.3441954 0 0 1 0.0424,0.08682 c -0.004,-0.09038 -0.009,-0.192695 -0.009,-0.242879 -0.008,0.05243 -0.0202,0.10414 -0.0331,0.156062 z"
         style="fill:#fe9a1d;stroke-width:0.0625488;stroke-linecap:round;stroke-linejoin:round;paint-order:markers stroke fill"
         id="path253" /><path
         d="m 315.05312,62.540369 a 4.3441954,4.3441954 0 0 1 0.005,-0.05219 c -0.0174,0.0076 -0.0309,0.01569 -0.0491,0.02325 v 0.02894 z"
         style="fill:#fe9a1d;stroke-width:0.0625488;stroke-linecap:round;stroke-linejoin:round;paint-order:markers stroke fill"
         id="path247" /><path
         id="path246"
         style="fill:#fe9a1d;stroke-width:0.0625488;stroke-linecap:round;stroke-linejoin:round;paint-order:markers stroke fill"
         d="m 317.10312,59.087349 a 4.3441954,4.3441954 0 0 0 -1.27072,1.208195 v 0.670761 c 0,0.928312 -0.12795,1.239397 -0.77463,1.52187 a 4.3441954,4.3441954 0 0 0 -0.005,0.05219 h 2.87321 v -0.02894 c -0.6933,-0.288881 -0.82321,-0.591835 -0.82321,-1.545125 z m 4.08761,-0.255281 c -1.30141,0.304508 -2.35438,0.77966 -2.35438,2.018481 0,1.213286 0.90998,1.791105 2.05104,1.791105 1.15037,0 2.1437,-0.844367 2.37918,-1.793689 a 4.3441954,4.3441954 0 0 0 -0.12195,-0.228409 c -0.27037,0.89125 -0.99166,1.386478 -1.7229,1.386478 -0.6933,0 -1.22731,-0.346366 -1.22731,-1.299662 0,-0.841937 0.46819,-1.343125 1.42679,-1.647445 a 4.3441954,4.3441954 0 0 0 -0.43047,-0.226859 z m 2.11822,2.102714 c 0.009,0.195749 0.0196,0.410576 0.0196,0.450102 0.0353,0.374636 0.15771,0.686632 0.36432,0.907955 a 4.3441954,4.3441954 0 0 0 -0.38395,-1.358057 z M 153.93634,52.056254 a 6.1901765,6.1901765 0 0 0 0.81132,0.175183 l 2.98793,-7.016626 2.32751,5.196582 a 6.1901765,6.1901765 0 0 0 1.57044,-2.843237 l -2.87682,-6.34845 h -0.0899 z" /><path
         id="path241"
         style="fill:#fa328d;stroke-width:0.0625488;stroke-linecap:round;stroke-linejoin:round;paint-order:markers stroke fill"
         d="m 282.01534,57.777869 a 4.3441954,4.3441954 0 0 0 -1.2671,0.565857 v 2.622579 c 0,0.95329 -0.13042,1.256244 -0.82372,1.545125 v 0.02894 h 2.91765 v -0.02894 c -0.69331,-0.288881 -0.82321,-0.591835 -0.82321,-1.545125 V 57.88949 c 0,-0.0384 -0.003,-0.07409 -0.004,-0.111621 z m 2.48822,0.06304 V 60.9663 c 0,0.95329 -0.12989,1.256244 -0.8232,1.545125 v 0.02894 h 2.91765 v -0.02894 C 285.9047,62.222544 285.77429,61.91959 285.77429,60.9663 v -2.44998 a 4.3441954,4.3441954 0 0 0 -1.27073,-0.675411 z m 72.94336,37.134167 a 6.1901765,6.1901765 0 0 0 0.43821,-1.509985 c -0.8237,-0.33592 -1.37149,-1.103714 -1.37149,-2.493905 0,-0.696607 0.15688,-1.279313 0.46767,-1.770434 a 6.1901765,6.1901765 0 0 0 -1.05627,-1.242818 c -1.34486,0.672696 -2.235,1.67031 -2.235,3.313492 0,2.339672 1.62822,3.540985 3.75688,3.70365 z m -11.43238,-0.189135 h 5.78311 v -0.05994 c -1.44183,-0.60077 -1.71204,-1.231744 -1.71204,-3.214274 v -4.895825 a 6.1901765,6.1901765 0 0 0 -2.64325,1.543058 v 3.352767 c 0,1.872011 -0.25424,2.537636 -1.495,3.111955 a 6.1901765,6.1901765 0 0 0 0.0672,0.162264 z M 200.86371,73.856991 c -0.57623,-0.06367 -1.17904,-0.09767 -1.81023,-0.09767 h -8.53074 v 0.05994 c 1.44184,0.60076 1.71204,1.802262 1.71204,3.784782 v 3.996655 a 6.1901765,6.1901765 0 0 0 2.70319,0.728638 v -7.789189 h 3.78478 c 0.93607,0 1.7655,0.145455 2.47014,0.428914 a 6.1901765,6.1901765 0 0 0 -0.32918,-1.112076 z M 185.87858,61.062939 a 6.1901765,6.1901765 0 0 0 -2.80138,-1.730127 l 1.42265,2.973979 -1.29191,2.883545 c -0.96122,2.13271 -1.62207,3.12384 -2.8236,3.12384 -0.90115,0 -1.47175,-0.600645 -1.47175,-1.471744 0,-0.720922 0.30028,-1.201532 0.99116,-1.4118 -0.36046,-0.180234 -0.69103,-0.240296 -1.11156,-0.240296 -1.08137,0 -2.04226,0.751123 -2.04226,2.042769 0,1.47187 1.14107,2.372982 2.76314,2.372982 2.01256,0 3.2442,-1.381967 4.44573,-4.145483 z" /><path
         id="path290"
         style="fill:#539cf1;stroke-width:0.116342;stroke-linecap:round;stroke-linejoin:round;paint-order:markers stroke fill"
         d="m 305.23253,73.862158 c -0.59623,-0.06715 -1.21562,-0.102836 -1.85622,-0.102836 h -8.98136 v 0.05994 c 1.44183,0.60076 1.71204,1.802262 1.71204,3.784782 v 8.088395 a 8.0802765,8.0802765 0 0 0 2.14974,0.322461 8.0802765,8.0802765 0 0 0 0.55345,-0.04806 v -1.063501 h 3.52795 a 8.0802765,8.0802765 0 0 0 1.12655,-0.792717 c -0.15747,0.0065 -0.31623,0.01189 -0.47904,0.01189 h -4.17546 v -9.582361 h 4.17546 c 1.10545,0 2.04832,0.172533 2.82102,0.517281 a 8.0802765,8.0802765 0 0 0 -0.57413,-1.195276 z M 250.37128,59.964815 c 0.0128,-0.6257 0.03,-1.313053 0.03,-2.147672 0,-1.718819 -1.12625,-2.440678 -3.00395,-2.440678 -1.48772,0 -2.49907,0.837789 -2.49907,1.776636 0,0.664421 0.46252,1.054199 1.05472,1.054199 0.41887,0 0.75098,-0.216774 0.8232,-0.65009 -0.0578,0.02889 -0.13032,0.04341 -0.1881,0.04341 -0.40442,0 -0.66404,-0.317564 -0.66404,-0.765327 0,-0.635525 0.40444,-1.184424 1.47329,-1.184424 1.18439,0 1.67535,0.895348 1.67535,1.949751 v 0.823206 l -1.09761,0.202572 c -0.81581,0.150822 -1.61005,0.312776 -2.22157,0.605131 a 4.3441954,4.3441954 0 0 0 0.5917,0.441316 c 0.34104,-0.380468 0.92331,-0.626019 1.75958,-0.786515 l 0.9679,-0.188102 -0.0289,1.198893 c -0.003,0.145364 -0.018,0.282851 -0.0403,0.414445 a 4.3441954,4.3441954 0 0 0 1.36787,-0.346749 z m -28.33109,28.928984 a 6.1901765,6.1901765 0 0 0 -2.73575,-1.07487 l -0.0351,1.469678 c -0.0601,2.79355 -1.92286,4.385779 -3.81527,4.385779 -1.36202,0 -2.42799,-0.644528 -2.54196,-2.386935 a 6.1901765,6.1901765 0 0 0 -0.62787,2.663403 6.1901765,6.1901765 0 0 0 0.0615,0.70435 c 0.59462,0.227295 1.27298,0.341065 1.9973,0.341065 2.5232,0 4.68581,-1.952887 5.01623,-4.055567 0,0.33042 0.06,1.32213 0.06,1.44229 0.1502,1.59203 1.05167,2.643249 2.67373,2.643249 1.13552,0 2.03629,-0.461886 2.57091,-1.098641 a 6.1901765,6.1901765 0 0 0 -0.005,-0.152962 c -0.22205,0.105871 -0.49161,0.170015 -0.7643,0.170015 -1.2616,0 -1.89239,-0.840761 -1.89239,-2.492871 0,-0.804176 0.0183,-1.650237 0.0377,-2.557983 z" /></g></g></svg>
