<?xml version="1.0" encoding="UTF-8" standalone="no"?>
<!-- Created with Inkscape (http://www.inkscape.org/) -->

<svg
   width="1920"
   height="1080"
   viewBox="0 0 507.99994 285.74997"
   version="1.1"
   id="svg5"
   xml:space="preserve"
   xmlns="http://www.w3.org/2000/svg"
   xmlns:svg="http://www.w3.org/2000/svg"><defs
     id="defs2" /><g
     id="layer1"
     transform="translate(-518)"><g
       id="g398"
       transform="matrix(1.0935538,0,0,1.0935538,95.014786,-15.364908)"><path
         id="path390-6"
         style="fill:#fc338f;stroke-width:0.0638337;stroke-linecap:round;stroke-linejoin:round;paint-order:markers stroke fill"
         d="m 589.75702,66.644752 c -0.41114,-0.265474 -0.86339,-0.461042 -1.33842,-0.57877 0.66479,0.66666 1.17667,1.33895 1.17667,1.94406 0,0.78117 -1.35107,0.96041 -2.45773,0.97669 -1.51351,0.0326 -2.52233,-0.32553 -2.52233,-1.31827 0,-0.16274 0.0163,-0.27702 0.0651,-0.43976 l -0.14676,-0.016 c -0.16275,0.37431 -0.26018,0.91116 -0.24391,1.39939 0.0326,1.3345 0.91118,2.00195 2.62,2.00195 2.06684,0 3.05976,-0.82981 3.05976,-2.58744 0,-0.4449 -0.071,-0.90756 -0.21239,-1.38183 z m 85.71828,28.6458 c 0.604,0.0424 1.2784,0.0706 2.00866,0.0713 l -1.10277,-0.50901 v -1.89601 l 1.10381,-0.50953 v -0.0279 c -1.51343,0.002 -2.86543,0.17052 -4.7992,0.42271 0.65751,1.082257 1.63112,1.936824 2.7895,2.44843 z m -2.7926,-2.45256 c 1.32585,-0.76397 2.39624,-1.86615 2.39624,-3.44734 0,-1.26155 -0.53061,-2.5807 -1.79421,-3.75946 -0.49276,0.574476 -0.87599,1.234448 -1.13068,1.94717 1.19854,0.59201 2.41536,1.37573 2.41536,2.12338 0,0.86349 -0.90082,1.58856 -2.40192,2.07636 0.13764,0.368877 0.31016,0.723782 0.51521,1.05989 z m 4.8023,-0.41858 c 0.009,-2e-5 0.0185,-5.2e-4 0.0279,-5.2e-4 v 2.94349 c 3.67937,0 5.17953,-2.00934 5.17953,-4.86792 0,-2.09441 -0.6227,-4.10379 -1.35857,-5.49062 h -0.3111 l -1.07538,2.49029 c 0.84908,1.04721 2.09444,2.46249 2.09444,3.22667 0,0.934 -1.61332,1.66979 -4.55682,1.69809 z m 0,0 v 0.0279 l -1.10381,0.50953 v 1.896 l 1.10277,0.50902 c 0.01,1e-5 0.0189,5.1e-4 0.0289,5.1e-4 v -2.94349 c -0.009,0 -0.0185,5.1e-4 -0.0279,5.2e-4 z m 28.10167,-29.253 V 52.501955 H 705.304 l -1.2454,1.83968 v 7.900807 c 0.46202,0.380225 0.97673,0.691453 1.52807,0.92397 z m 1.14799,-14.845187 c -2.08483,0.31588 -3.68003,-0.20532 -3.83797,-1.23194 0.31588,-0.45803 0.93185,-0.86867 1.83212,-0.86867 0.55279,0 1.04241,0.18953 1.45305,0.58438 l 0.0632,-0.11056 c -0.0316,-0.66335 -0.37906,-1.64259 -1.45306,-1.64259 -2.10061,0 -2.96929,3.19041 -0.90026,4.0117 -0.74232,0.2685 -1.20035,0.64756 -1.57941,0.97924 v 0.15794 c 1.26353,-0.34747 3.07985,-0.67915 4.21702,-0.77391 l 0.2843,-1.01082 z" /><path
         id="path360-0"
         style="fill:#fd9d1f;stroke-width:0.0891277;stroke-linecap:round;stroke-linejoin:round;paint-order:markers stroke fill"
         d="m 558.77286,84.024052 c -0.44395,0.0129 -0.88523,0.0735 -1.3162,0.18087 l 0.0243,6.0632 c 0.0283,3.59446 1.3587,5.09426 4.33049,5.09426 0.17096,0 0.33486,-0.008 0.49557,-0.0191 a 6.1901765,6.1901765 0 0 0 2.55902,-3.59306 c -0.66189,0.50523 -1.62977,0.66869 -3.05459,0.66869 -2.43404,-0.0283 -3.05718,-1.21678 -3.05718,-3.25458 z m 95.83963,-18.31826 a 6.1901765,6.1901765 0 0 0 -0.94103,1.37666 h 6.19652 c 2.03429,0 2.68491,0.4393 2.92902,1.79007 h -9.69243 a 6.1901765,6.1901765 0 0 0 -0.0744,0.93948 6.1901765,6.1901765 0 0 0 0.0584,0.73691 h 8.14627 c 1.25313,0 2.42489,-0.87905 2.27842,-2.16473 -0.11392,-1.87155 -1.18797,-2.68511 -3.10834,-2.68511 h -4.9475 c -0.22225,0 -0.53692,0.004 -0.84491,0.007 z" /><path
         id="path334-2"
         style="fill:#549cf1;stroke-width:0.0891277;stroke-linecap:round;stroke-linejoin:round;paint-order:markers stroke fill"
         d="m 646.50136,95.828502 c -0.18912,-0.309636 -0.4051,-0.602045 -0.64544,-0.87385 0.0375,0.25709 0.0637,0.508 0.0713,0.74724 -0.26049,2.60478 -4.8159,4.29519 -10.76833,4.548558 0.21014,1.04216 0.68514,2.01264 1.37924,2.81792 6.63403,-0.65129 9.47396,-3.01299 9.92704,-6.828518 0.0133,-0.13268 0.0258,-0.27207 0.0362,-0.41135 z m 30.51496,-31.61822 0.0129,3.26388 c 0.0283,3.59446 1.33025,5.09426 4.30206,5.09426 h 1.35186 c 0.26632,-0.693442 0.40566,-1.429157 0.41134,-2.17196 -7.7e-4,-0.25798 -0.0177,-0.515659 -0.0506,-0.77153 h -1.71256 c -2.43405,-0.0283 -3.02823,-1.21678 -3.02823,-3.25458 l 0.007,-1.99884 c -0.42444,-0.09915 -0.85818,-0.153194 -1.29398,-0.16123 z" /><path
         id="path387-4"
         style="fill:#4daabc;stroke-width:0.0891277;stroke-linecap:round;stroke-linejoin:round;paint-order:markers stroke fill"
         d="m 621.64189,68.210032 a 6.1901765,6.1901765 0 0 0 -0.031,0.39378 6.1901765,6.1901765 0 0 0 0.25321,1.70428 c 0.3362,0.15753 0.74517,0.23622 1.23713,0.23978 l 0.003,0.001 c 0.005,0 0.01,-4.9e-4 0.015,-5.1e-4 0.006,2e-5 0.0115,5.1e-4 0.0176,5.1e-4 v -0.001 c 1.13441,-0.0133 1.76245,-0.71023 2.22984,-1.87068 0.24412,0.76489 1.48059,1.82262 2.86391,1.82262 1.05784,0 1.75803,-1.12273 1.75803,-2.52232 0,-1.3996 -0.66718,-3.01067 -1.95285,-3.01067 -0.92764,0 -1.69287,0.79749 -2.58796,2.47375 -0.53359,1.03486 -1.18022,1.41062 -2.32182,1.41542 -0.79095,-0.0113 -1.24165,-0.23804 -1.48363,-0.64596 z m 6.14898,-1.81126 c 0.97647,0 1.80637,0.99271 1.88774,2.14819 0.0163,0.82999 -2.88041,0.29326 -3.87315,-0.84594 0.58587,-0.92764 1.33444,-1.30225 1.98541,-1.30225 z m -30.46222,28.32644 c 0.0755,-0.51853 0.11575,-1.04769 0.11575,-1.58233 0,-3.84919 -1.44347,-7.75509 -3.93412,-7.75509 -2.26423,0 -4.01888,3.05697 -4.01888,5.83066 0,2.66046 1.52819,3.96203 3.39617,3.96203 1.44345,0 3.02871,-0.84865 3.8778,-3.08457 0.19812,0.45285 0.3111,0.93391 0.3111,1.33015 0,0.55775 -0.11565,1.09882 -0.32815,1.61489 a 6.1901765,6.1901765 0 0 0 0.58033,-0.31574 z m -4.61057,-6.66471 c 1.52835,0 2.88689,1.16006 3.67936,3.22616 -0.87737,0.9057 -2.09452,1.30225 -3.33985,1.30225 -1.58494,0 -2.97191,-0.70761 -2.97191,-1.72651 0,-1.0472 1.07576,-2.8019 2.6324,-2.8019 z" /><path
         id="text46-8"
         style="font-size:15.7941px;line-height:1.2;font-family:'The Year of The Camel';-inkscape-font-specification:'The Year of The Camel';font-feature-settings:'case', 'cv01', 'cv02', 'cv03', aalt;text-align:center;letter-spacing:0px;direction:rtl;text-anchor:middle;fill:#4f3322;stroke-width:0.0759643;stroke-linecap:round;stroke-linejoin:round;paint-order:markers stroke fill"
         d="m 678.10463,52.190345 -1.35858,2.34921 v 0.25476 c 0.16982,0.84909 0.25477,3.05694 0.25477,5.575887 l 0.0155,3.84008 c 0.4358,0.008 0.86953,0.06208 1.29398,0.16123 l 0.0212,-5.92626 v -6.254907 z m 27.48204,10.976067 c -0.55134,-0.232517 -1.06605,-0.543745 -1.52807,-0.92397 v 5.42964 c 0,1.64156 -10e-6,3.28308 -0.36794,4.89634 h 0.25477 c 0.53775,-1.10381 1.64124,-3.3113 1.64124,-6.22649 z m -5.1226,-7.070177 c -0.82078,-0.50945 -1.58496,-2.26423 -1.66987,-3.67937 h -0.22641 l -0.67928,1.07551 c -0.33964,0.62266 -0.42453,1.07551 -0.36792,1.50005 v 13.557037 c 0,0.73588 -0.73588,1.04721 -2.80199,1.07551 v 0.0283 l -1.07551,0.50945 v 1.89629 l 1.07551,0.50945 v 0 h 0.0283 v 0 0 c 0,0 4.24542,-1.78308 4.24542,-4.75487 v -9.821067 z m -17.42021,13.528697 c 0.0329,0.255871 0.0498,0.51355 0.0506,0.77153 -0.006,0.742803 -0.14502,1.478518 -0.41134,2.17196 h 3.85609 c 2.26424,0 3.62248,-0.99071 4.10363,-2.60397 0.48115,1.66986 2.00974,2.60397 4.10414,2.60397 v -2.94349 c -2.37744,-0.0283 -3.33976,-0.73563 -3.56619,-2.15077 l 0.0284,-0.0284 c 0.0566,-0.96229 0.11318,-1.78315 0.11318,-2.71715 h -0.34004 c -0.28304,4.019 -1.1317,4.896359 -4.44314,4.89634 z m -32.82681,-0.76859 c -1.39959,-0.0163 -1.74136,-0.69979 -1.74136,-1.87155 l 0.0163,-4.55682 v -3.59663 h -0.13019 l -0.78118,1.35077 v 0.14647 c 0.0976,0.48823 0.14647,1.75763 0.14647,3.20605 l 0.0163,4.08486 c 0.0163,2.06685 0.7649,2.92939 2.47371,2.92939 z m -12.46616,-5.77739 1.07412,0.97646 0.82999,-0.92764 -1.07411,-0.96019 z m 2.08312,0.0977 1.07411,0.96018 0.83,-0.92764 -1.07411,-0.96018 z m 6.29818,4.10114 c 0,-1.15548 -0.34176,-2.14822 -0.79744,-2.96194 h -0.16274 l -0.6347,1.3996 c 0.5696,0.58587 1.23685,1.39959 1.23685,1.82273 0,0.91136 -2.53881,1.51351 -6.50975,1.51351 -2.76664,0 -4.65447,-0.78117 -4.65447,-2.48998 0,-0.48823 0.11393,-1.02528 0.35804,-1.69253 h -0.16274 c -0.35804,0.87882 -0.53706,1.74136 -0.53706,2.4737 0,2.19704 1.65999,3.31997 4.84976,3.31997 4.29643,0 7.01425,-0.5045 7.01425,-3.38506 z m 10.30189,-6.70497 c -1.62743,0 -5.4684,2.91322 -5.4684,5.01262 0,0.79744 0.61867,1.49706 2.16473,1.49706 h 0.54105 c 0.25015,-0.49923 0.5667,-0.962317 0.94103,-1.37666 -1.3384,0.0109 -3.175,-0.0167 -3.175,-0.62528 0,-1.00901 4.4107,-3.82414 4.89893,-3.02669 l 0.29248,-0.0491 c 0.26039,-0.78117 0.30969,-1.43196 -0.19482,-1.43196 z m -3.34553,9.97614 c -0.0341,-0.244254 -0.0536,-0.490329 -0.0584,-0.73691 8.9e-4,-0.314596 0.0258,-0.628666 0.0744,-0.93948 h -2.88768 l -0.63458,0.29301 v 1.09037 l 0.63458,0.29301 h 1.36736 z m -31.80736,-11.71768 -0.78135,1.35082 v 0.14624 c 0.0976,0.48823 0.14676,1.75811 0.14676,3.20652 l 0.016,4.08451 c 0.0115,1.45233 0.38745,2.30731 1.20148,2.68872 -0.16344,-0.553512 -0.24867,-1.12716 -0.25321,-1.70428 0.006,-0.131556 0.0165,-0.262883 0.031,-0.39378 -0.18329,-0.30899 -0.24701,-0.72159 -0.24701,-1.22525 l 0.0165,-4.55682 v -3.59668 z m -4.10112,1.82279 -0.91136,1.02528 1.18803,1.05784 0.91136,-1.02529 z m 1.51351,7.09562 c 0,-1.2043 -0.35803,-2.35978 -0.78116,-3.15722 h -0.17902 l -0.61842,1.43214 c 0.48822,0.60215 1.2043,1.41587 1.2043,1.85528 0,0.53705 -0.92764,0.96018 -2.62018,0.97646 v 0.0163 l -0.63469,0.29294 v 1.09038 l 0.63469,0.29294 v 0 0 h 0.0163 v 0 c 2.11567,0 2.97821,-1.15548 2.97821,-2.79919 z m -5.02879,-0.14647 c 0.0489,-0.55333 0.0651,-1.02528 0.0814,-1.56234 h -0.21157 c -0.14647,2.31096 -0.6347,2.81547 -2.5388,2.81547 v 0.0163 l -0.65097,0.29294 v 1.09038 l 0.65097,0.29294 v 0 0 0 0 c 1.28568,0 2.06685,-0.5696 2.34351,-1.49724 0.27666,0.96018 1.15548,1.49724 2.35978,1.49724 v -1.69254 c -1.35077,-0.0163 -1.9041,-0.42313 -2.03429,-1.25312 z m -1.9041,6.02152 0.82999,-0.91137 -1.07411,-0.97646 -0.82999,0.92764 z m 2.09939,0.0814 0.81372,-0.92764 -1.05784,-0.96019 -0.82999,0.92764 z m -4.93112,-6.16799 v -0.94391 h -0.21157 c -0.0163,1.56234 -0.13019,2.40861 -0.86254,2.40861 -0.87881,0 -2.44115,-0.56961 -2.4086,-0.91137 0.0488,-0.45568 0.11391,-0.82999 0.13019,-1.44842 l -0.17902,0.0163 c -0.14647,1.74136 -0.81371,2.19704 -1.80645,2.21332 v 0 c -1.12293,0 -1.64372,-0.52078 -2.08312,-1.77391 l -0.16275,-0.47196 h -0.17902 l -0.66724,1.25313 c 0.43941,0.89509 0.99274,2.16449 0.99274,3.18978 0,0.87881 -1.61117,1.79018 -3.3037,1.79018 -2.05057,0 -3.18978,-0.86255 -3.18978,-2.48998 0,-0.81372 0.27667,-1.82273 0.84627,-2.97821 h -0.24412 c -0.69979,1.35077 -1.10665,2.75037 -1.10665,3.9384 0,1.88782 1.25313,3.25487 3.56409,3.25487 2.63644,0 4.08486,-1.80645 3.72682,-4.5731 0.42313,0.34176 0.92764,0.52078 1.43215,0.53706 v 0 c 0.68352,0 1.52979,-0.22784 1.9041,-1.23686 0.48823,0.94392 1.61116,1.28568 2.14821,1.28568 0.83,0 1.20431,-0.50451 1.3996,-1.13921 0.35804,0.6998 1.13921,1.09039 2.31096,1.09039 v -1.69254 c -1.44842,0 -1.95292,-0.14647 -2.06685,-1.31822 z m -21.4333,-4.39393 -0.19534,0.016 -0.53692,1.39992 c 0.53295,0.47609 1.13996,0.98915 1.6552,1.50585 0.47503,0.117728 0.92728,0.313296 1.33842,0.57877 -0.33438,-1.12179 -1.07176,-2.31096 -2.26136,-3.50056 z m -5.54958,7.40469 c 0.30921,-0.6347 0.94391,-1.9041 0.94391,-3.58036 v -7.95817 h -0.16274 l -0.71608,1.05784 v 7.66522 c 0,0.94392 0,1.88783 -0.21156,2.81547 z m -2.00175,-9.47168 c -0.47196,-0.29294 -0.91136,-1.30195 -0.96019,-2.11567 h -0.13019 l -0.39059,0.61843 c -0.19529,0.35803 -0.24411,0.61842 -0.21156,0.86254 v 7.79542 c 0,0.42313 -0.42314,0.60215 -1.61116,0.61842 v 0.0163 l -0.61843,0.29294 v 1.09039 l 0.61843,0.29293 v 0 h 0.0163 v 0 0 c 1.80645,0 2.44116,-1.02528 2.44116,-2.73409 v -5.64721 z m -5.4682,6.37955 c -0.39058,-1.36705 -0.76489,-2.39233 -1.75763,-2.48998 -1.05783,-0.0976 -2.14821,1.07411 -2.86429,2.75037 -1.54606,0.53705 -2.05057,1.72508 -1.80645,3.51526 0.14646,0.99274 0.34176,2.83174 0.34176,4.21506 h 0.17902 c 0.5696,-0.87881 0.40685,-3.40134 0.14646,-5.59838 0.40687,-0.24411 0.81373,-0.45568 1.25313,-0.66725 0.86255,0.84627 1.92038,1.31823 3.02703,1.25313 0.68352,-0.0325 1.07411,-0.47196 1.18804,-1.20431 0.52077,0.91137 1.25312,1.31823 2.45742,1.31823 v -1.69254 c -1.07411,0 -1.80645,-0.52077 -2.18076,-1.39959 z m -4.19879,0.37431 c 0.56961,-0.96019 1.38333,-1.51352 2.11567,-1.43214 0.99274,0.0976 1.64371,0.96018 1.72508,2.26213 0.0326,0.71607 -2.78291,-0.0163 -3.84075,-0.82999 z m 114.08245,9.86021 1.44344,-1.61326 -1.86799,-1.66987 -1.44343,1.61326 z m 3.62276,0.14151 1.44344,-1.61326 -1.86798,-1.66986 -1.41515,1.61326 z m -84.05675,11.27476 c 1.0472,1.04721 2.77367,3.22652 2.77367,4.64166 0,2.74537 -3.42463,5.9436 -7.33043,5.9436 -0.67927,0 -1.27363,-0.0283 -1.9812,-0.11327 v 0.33963 c 1.0189,0.792478 2.68877,1.613258 3.84919,1.613258 3.48124,0 6.0285,-3.792578 6.0285,-8.037988 0,-2.06612 -0.70757,-4.33034 -2.09441,-6.84928 h -0.33964 z m -6.59715,5.61767 c -0.18769,0.115502 -0.3814,0.220899 -0.58033,0.31574 -1.1462,2.78361 -5.11093,4.83795 -8.95501,4.83795 -0.82078,0 -1.64162,-0.0849 -2.46238,-0.22634 v 0.31109 c 1.07551,0.679258 3.93401,1.981268 5.37745,1.981268 3.40035,0 6.04864,-3.291328 6.62027,-7.219708 z m -12.0827,-8.22152 -1.07551,2.40573 c 0.70758,0.76418 1.78309,2.34914 1.75478,3.25483 0,0.22642 -0.59435,0.33963 -1.21702,0.33963 -2.06611,0 -4.13221,-0.87739 -4.019,-1.66987 0.11326,-0.82078 0.16982,-1.47175 0.22643,-2.51895 l -0.33964,0.0566 c -0.19812,2.77367 -1.04721,4.07561 -3.76428,4.07561 -1.21701,0 -2.23592,-0.56607 -2.1227,-1.01891 0.085,-0.84908 0.25471,-1.81137 0.28303,-2.85858 l -0.33965,0.0283 c -0.33963,3.11332 -1.55665,3.82089 -4.64165,3.82089 v 0.085 l -1.07551,0.50946 v 1.83967 l 1.07551,0.50946 v 0 h 0.0283 c 1.35854,0 3.16993,-0.48115 3.9624,-1.83969 0.79247,1.58496 2.12271,1.83969 2.88689,1.83969 1.41513,0 2.68876,-0.73588 3.22651,-2.20762 0.84909,1.58495 2.63217,2.09441 3.62277,2.09441 1.75477,0 2.91518,-1.27364 2.91518,-4.07561 0,-1.58495 -0.45284,-3.11331 -1.18872,-4.66996 z m -22.93894,8.83957 c 1.94104,-0.13792 3.13528,-1.09496 3.57963,-2.58486 0.48114,1.66985 2.00973,2.60398 4.10414,2.60398 v -2.94349 c -2.34912,-0.0283 -3.31136,-0.73574 -3.53777,-2.17919 0.085,-0.9623 0.11323,-1.78317 0.1416,-2.71715 h -0.36794 c -0.14512,2.28974 -0.48423,3.55867 -1.36064,4.22765 -0.38284,1.471294 -1.29373,2.750253 -2.55902,3.59306 z m 0.83442,5.368428 1.44345,-1.584948 -1.86799,-1.69817 -1.44344,1.61325 z m 3.65107,0.14152 1.41513,-1.613258 -1.83969,-1.66987 -1.44343,1.61325 z m -8.23616,-25.868908 -1.35858,2.34921 v 0.25476 c 0.16981,0.84908 0.25477,3.05694 0.25477,5.57589 l 0.004,1.04076 c 0.43097,-0.107333 0.87225,-0.167973 1.3162,-0.18087 l 0.01,-2.78484 v -6.25491 z m 98.77691,11.23652 -1.07538,2.37711 c 0.76417,0.93399 1.89601,2.49061 1.89601,3.05667 0,0.33963 -0.56602,0.4811 -1.21698,0.4811 -2.03781,0 -4.13208,-0.84877 -4.01888,-1.64124 0.11327,-0.87738 0.19803,-1.49993 0.22634,-2.54713 l -0.28318,0.0563 c -0.31133,2.88689 -1.44312,3.8778 -3.11299,3.8778 -1.92459,0 -3.08536,-0.73628 -3.76463,-2.91559 l -0.36794,-1.1038 h -0.28267 l -1.16065,2.17971 c 0.63714,1.29878 1.44181,3.25389 1.68362,4.91288 0.24034,0.271802 0.45632,0.564207 0.64544,0.87384 0.0118,-0.15784 0.0201,-0.31576 0.0201,-0.46612 v -0.1695 c 0,-0.33964 -0.0281,-0.70756 -0.0847,-1.1038 0.67927,0.62266 1.44341,0.96221 2.32079,0.96221 1.47175,0 2.8303,-0.73615 3.31143,-2.51923 0.9623,1.89629 2.85839,2.34922 3.87728,2.34922 1.75479,0 2.94349,-1.35857 2.94349,-3.5662 0,-1.55664 -0.48078,-3.22627 -1.38648,-5.09426 z M 636.53814,103.0684 c -0.6941,-0.80528 -1.1691,-1.77576 -1.37924,-2.81792 -0.51532,0.0219 -1.03705,0.0367 -1.57148,0.0367 -8.68896,0 -14.00992,-1.811138 -17.91571,-4.726318 l -0.17001,0.45268 c 4.47184,3.93409 7.2738,7.245558 16.92506,7.245558 1.51494,0 2.87185,-0.069 4.11138,-0.19069 z m 43.04108,-2.15856 1.44345,-1.613248 -1.86799,-1.66987 -1.44344,1.61326 z m -4.10392,-5.619258 c -1.15838,-0.511606 -2.13199,-1.366173 -2.7895,-2.44843 -0.004,5.8e-4 -0.008,9.7e-4 -0.0124,0.002 l 0.009,-0.006 c -0.20505,-0.336105 -0.37757,-0.691006 -0.51521,-1.05988 -1.05743,0.34362 -2.41041,0.5706 -3.96617,0.64078 0.28304,-0.87738 0.99078,-3.70754 2.49081,-5.49062 0.41413,0.16393 0.93635,0.39049 1.46192,0.65009 0.25469,-0.712722 0.63792,-1.372694 1.13068,-1.94717 -0.49401,-0.46084 -1.09644,-0.90118 -1.82831,-1.30689 h -0.19844 c -1.95288,2.51894 -3.198,6.67945 -3.50934,8.09459 h -1.83968 v 0.0284 l -1.10381,0.50953 v 1.89601 l 1.10381,0.50953 v 0.0284 h 1.66966 c 0.39625,3.76427 2.68905,6.254918 5.46272,6.254918 1.52835,0 2.77347,-1.387 2.77347,-3.226678 0,-1.44345 -0.90553,-2.99998 -1.92443,-3.283 0.44916,0.0562 0.98249,0.11218 1.58492,0.15451 z m -5.86528,-0.13488 c 3.46168,-0.036 5.78053,1.5832 5.78053,3.09387 0,0.76417 -0.99075,0.90537 -1.75493,0.90537 -2.15102,0 -5.03761,-1.52815 -5.57537,-3.87728 0.53775,-0.0778 1.05525,-0.11682 1.54977,-0.12196 z m -3.72937,-2.7367 c -2.43405,-0.0283 -3.02841,-1.21702 -3.02841,-3.25482 l 0.0283,-7.92479 v -6.25492 h -0.22642 l -1.35854,2.34913 v 0.25473 c 0.16981,0.84908 0.25474,3.05671 0.25474,5.57565 l 0.0283,7.104 c 0.0283,3.59446 1.33024,5.09451 4.30203,5.09451 z" /></g><path
       id="rect400"
       style="fill:#fd7aa8;fill-opacity:1;stroke-width:0.285362;stroke-linecap:round;stroke-linejoin:round;paint-order:markers stroke fill"
       d="m 771.17641,28.68013 -1.78594,11.217388 59.48237,9.469449 1.78594,-11.217389 z m 8.42278,2.967645 0.37533,0.63698 -2.1169,1.222053 c 0.45576,0.250317 0.80599,0.531304 1.03634,0.846651 0.2744,0.36994 0.42455,0.779915 0.45037,1.229668 0.0128,0.187953 0.005,0.383705 -0.0163,0.584624 0.0697,0.05336 0.1435,0.09919 0.22387,0.133354 0.17336,0.0737 0.36456,0.128402 0.57376,0.164197 l 0.0714,0.01252 0.39228,0.06681 0.20681,0.03528 0.19955,0.03456 0.20681,0.03528 c -0.11988,-0.157547 -0.20368,-0.323698 -0.25211,-0.498364 -0.0428,-0.178635 -0.0471,-0.367658 -0.0129,-0.567371 0.0343,-0.199698 0.10382,-0.378687 0.20918,-0.536849 0.10614,-0.16291 0.23618,-0.294654 0.39046,-0.395511 0.1551,-0.105691 0.32656,-0.179482 0.51468,-0.220728 0.19288,-0.04032 0.39158,-0.0429 0.59602,-0.0079 0.20446,0.03496 0.38896,0.102981 0.55269,0.204384 0.16373,0.101453 0.30093,0.227753 0.41209,0.378899 0.11115,0.151164 0.18997,0.318965 0.23679,0.503145 0.0467,0.184177 0.0535,0.376185 0.0195,0.57588 -0.0276,0.161663 -0.0847,0.323156 -0.17103,0.484566 -0.0864,0.161421 -0.22153,0.306928 -0.40527,0.43699 l 0.15681,0.02704 0.15682,0.02704 0.59232,0.100826 10e-6,5.19e-4 0.0709,0.01203 0.79863,0.136648 c 0.0503,-0.06486 0.10993,-0.169881 0.17868,-0.314722 0.0695,-0.149565 0.13679,-0.311853 0.20095,-0.486863 0.0642,-0.17497 0.11368,-0.335266 0.14843,-0.481026 l 0.91377,-0.151615 c -0.12264,0.316698 -0.2469,0.601119 -0.37331,0.853555 -0.0985,0.205127 -0.20873,0.395805 -0.32589,0.578478 0.0138,0.008 0.0248,0.01801 0.0388,0.02579 0.10358,0.052 0.21592,0.09784 0.3363,0.137947 0.12515,0.04099 0.25666,0.0731 0.39456,0.09672 l 0.22818,0.03905 2e-5,5.09e-4 0.0714,0.01201 0.8773,0.1499 c 0.0725,-0.08051 0.14052,-0.193412 0.20455,-0.339078 0.0695,-0.149585 0.13079,-0.30819 0.18384,-0.475288 0.0579,-0.166287 0.10443,-0.321956 0.13916,-0.467707 l 0.91427,-0.152153 c -0.0945,0.238288 -0.18828,0.457346 -0.28122,0.656774 -0.0882,0.200236 -0.18428,0.389057 -0.28809,0.567059 -0.0498,0.08375 -0.10819,0.161368 -0.16208,0.24214 0.0243,0.01151 0.0456,0.02491 0.0708,0.03582 0.17337,0.07369 0.36459,0.128406 0.57376,0.164188 l 0.57046,0.09761 c 0.0725,-0.0805 0.14103,-0.193443 0.20508,-0.339105 0.0695,-0.149587 0.13077,-0.308173 0.18383,-0.475278 0.0578,-0.166284 0.10391,-0.321938 0.13865,-0.467699 l 0.91426,-0.152145 c -0.0946,0.238304 -0.18839,0.457309 -0.28121,0.656766 -0.0882,0.200246 -0.18376,0.38905 -0.28758,0.56705 -0.0274,0.04602 -0.0605,0.08792 -0.0891,0.133041 0.24806,0.181302 0.55975,0.307313 0.94198,0.3727 l 0.91273,0.156169 c 0.0129,-0.218028 0.0156,-0.405747 0.008,-0.563606 -0.003,-0.157039 -0.0127,-0.313127 -0.0305,-0.467831 -0.0157,-0.159513 -0.0441,-0.342841 -0.082,-0.549988 l 0.91436,-0.408689 c -0.009,0.306852 -0.0251,0.617044 -0.0494,0.930994 -0.0187,0.310002 -0.0595,0.621366 -0.12272,0.933557 -0.0107,0.05294 -0.029,0.105633 -0.042,0.158482 0.0344,0.01417 0.0674,0.02947 0.10317,0.04273 0.0736,0.02734 0.15,0.05232 0.2292,0.07573 0.08,0.01906 0.1627,0.03547 0.2483,0.0501 l 0.22611,0.03913 c 7.5e-4,1.19e-4 0.001,-2.17e-4 0.002,-8.6e-5 l 0.0714,0.01201 0.94138,0.161176 c 0.0502,-0.06486 0.10993,-0.169891 0.17868,-0.314722 0.0695,-0.149595 0.13679,-0.311863 0.20094,-0.486863 0.0642,-0.174959 0.11369,-0.335257 0.14844,-0.481036 l 0.91376,-0.151605 c -0.12262,0.316709 -0.24688,0.601121 -0.3733,0.853554 -0.0984,0.205037 -0.2088,0.395867 -0.32588,0.57848 0.0138,0.008 0.0248,0.01801 0.0388,0.02578 0.10359,0.052 0.21591,0.09786 0.33629,0.137957 0.12514,0.04089 0.25667,0.0731 0.39456,0.09671 l 0.37093,0.06357 0.0714,0.01253 0.79864,0.13665 c 0.0502,-0.06486 0.10992,-0.169912 0.17868,-0.314722 0.0695,-0.149585 0.13627,-0.311834 0.20042,-0.486845 0.0642,-0.17497 0.1137,-0.335265 0.14844,-0.481026 l 0.91428,-0.151645 c -0.12263,0.31671 -0.24741,0.601149 -0.37382,0.853585 -0.0985,0.205129 -0.20873,0.395806 -0.32589,0.578478 0.0139,0.0081 0.0252,0.01792 0.0394,0.02576 0.10359,0.052 0.21539,0.09787 0.33577,0.137975 0.12514,0.04099 0.25667,0.07311 0.39456,0.09671 l 0.22611,0.03914 c 7.6e-4,1.21e-4 0.001,-2.17e-4 0.002,-8.6e-5 l 2e-5,5.1e-4 0.0432,0.006 c 0.0856,0.01472 0.16129,0.01553 0.22716,0.0024 0.0707,-0.01197 0.13985,-0.04456 0.20749,-0.09663 0.0676,-0.05208 0.14623,-0.126918 0.23628,-0.224048 0.0908,-0.101892 0.20377,-0.231676 0.33846,-0.389705 0.18412,-0.218106 0.35664,-0.398952 0.51824,-0.542582 0.1624,-0.148403 0.31412,-0.262084 0.45482,-0.340791 0.14546,-0.07787 0.2838,-0.127669 0.41475,-0.149301 0.13651,-0.02555 0.26861,-0.02731 0.397,-0.0053 0.18543,0.03176 0.34479,0.103008 0.47757,0.213751 0.13277,0.1108 0.24589,0.279159 0.33931,0.505562 0.0935,0.22641 0.17302,0.531409 0.23958,0.914741 0.0457,0.247607 0.0954,0.432363 0.14789,0.55394 0.0534,0.116841 0.1182,0.196204 0.19414,0.23857 0.0815,0.03842 0.18628,0.06877 0.31466,0.09076 l 0.0141,0.0025 2e-5,5.1e-4 0.0141,0.0025 5.2e-4,-1.9e-5 c 0.1091,0.01851 0.20817,0.01125 0.29702,-0.02126 0.089,-0.03385 0.17764,-0.09217 0.26523,-0.17509 0.0884,-0.08768 0.18477,-0.195744 0.28999,-0.324564 0.0942,-0.120941 0.2058,-0.258236 0.33492,-0.412312 0.13391,-0.153283 0.28113,-0.299637 0.44193,-0.438525 0.16553,-0.138062 0.34317,-0.244944 0.53223,-0.320257 0.19383,-0.07458 0.39761,-0.09316 0.61156,-0.05669 0.27101,0.04627 0.49405,0.157695 0.66935,0.334484 0.17529,0.176818 0.29816,0.403403 0.36834,0.679681 0.0759,0.272327 0.0944,0.579034 0.0557,0.919871 -0.0332,0.336899 -0.12605,0.69052 -0.27719,1.061067 -0.18974,0.0509 -0.38108,0.08177 -0.57383,0.09287 -0.19274,0.01109 -0.38171,7.27e-4 -0.56715,-0.03103 -0.18634,-0.0263 -0.36373,-0.07671 -0.5323,-0.149892 -0.16466,-0.06737 -0.31843,-0.154848 -0.46151,-0.262522 -0.14228,-0.112427 -0.26945,-0.241535 -0.38143,-0.387942 -0.0322,-0.04547 -0.0594,-0.09631 -0.0883,-0.145255 -0.044,0.0403 -0.0794,0.08485 -0.12828,0.122789 -0.12416,0.0962 -0.26637,0.169804 -0.42676,0.22066 -0.14478,0.04582 -0.31196,0.05118 -0.49645,0.02652 l -8.4e-4,0.0047 -0.05,-0.0088 c -0.002,-3.98e-4 -0.004,1.68e-4 -0.007,-2.41e-4 l -0.0141,-0.003 c -10e-4,-2.34e-4 -0.002,-0.0017 -0.004,-0.0019 l -0.0109,-0.0016 c -0.21394,-0.03657 -0.39254,-0.09169 -0.53656,-0.165242 -0.10297,-0.05636 -0.18966,-0.127361 -0.26877,-0.204913 -0.12834,0.09011 -0.26292,0.159163 -0.41065,0.185323 -0.19288,0.04032 -0.39322,0.03796 -0.6008,-0.0074 -0.20754,-0.04543 -0.41156,-0.124321 -0.61251,-0.237045 -0.19536,-0.116645 -0.37985,-0.255741 -0.55284,-0.417468 -0.12286,-0.121598 -0.2298,-0.250992 -0.32957,-0.384435 -0.0858,0.08845 -0.17186,0.177366 -0.24799,0.240572 -0.0971,0.08134 -0.19325,0.142956 -0.28858,0.185375 -0.0946,0.0377 -0.19582,0.05958 -0.30448,0.06553 -0.0946,0.0021 -0.20553,-0.0097 -0.32551,-0.02875 l -3.9e-4,0.0031 -0.0714,-0.01201 -0.0646,-0.01074 c -0.25677,-0.04387 -0.48047,-0.106796 -0.67202,-0.188518 -0.18682,-0.08084 -0.35021,-0.170195 -0.49018,-0.267521 -0.0153,-0.0115 -0.0268,-0.02294 -0.0418,-0.03446 -0.0711,0.0821 -0.14269,0.164157 -0.22242,0.246224 l -1.04818,-0.179455 -0.0714,-0.01201 -0.20681,-0.03528 c -0.25675,-0.04388 -0.48098,-0.106785 -0.67254,-0.188499 -0.18682,-0.08084 -0.35023,-0.170169 -0.49017,-0.267519 -0.0152,-0.01143 -0.0264,-0.02303 -0.0413,-0.03448 -0.0711,0.08218 -0.14263,0.164096 -0.22242,0.246224 l -1.1909,-0.203471 -0.0714,-0.01252 3e-5,5.21e-4 -0.0641,-0.01128 c -0.19969,-0.03426 -0.38059,-0.08002 -0.54211,-0.137074 -0.10892,-0.04268 -0.20055,-0.09004 -0.29437,-0.137124 -0.0173,0.041 -0.0299,0.08212 -0.0486,0.123066 l -1.20499,-0.206494 c -0.25676,-0.04387 -0.48099,-0.106777 -0.67254,-0.188499 -0.18681,-0.08084 -0.35018,-0.169665 -0.49015,-0.267001 -0.07,-0.05277 -0.12745,-0.106087 -0.1908,-0.159056 -0.091,0.111384 -0.17905,0.222792 -0.2865,0.333728 l -0.6564,-0.112102 c -0.25676,-0.04388 -0.48097,-0.106784 -0.67253,-0.188497 -0.16136,-0.06983 -0.29704,-0.148345 -0.42345,-0.2305 -0.059,0.06729 -0.10857,0.134624 -0.1736,0.201756 l -1.12683,-0.192705 -0.0714,-0.01201 -0.0641,-0.01076 c -0.25675,-0.04387 -0.48098,-0.106778 -0.67254,-0.1885 -0.18681,-0.08084 -0.35021,-0.170185 -0.49016,-0.267519 -0.0152,-0.01143 -0.0264,-0.02303 -0.0413,-0.03447 -0.0711,0.08217 -0.14263,0.164077 -0.22241,0.246214 l -1.04819,-0.179454 -0.0714,-0.01201 -0.42094,-0.07233 c -0.2425,-0.04137 -0.453,-0.08149 -0.63201,-0.122446 -0.17823,-0.04516 -0.33694,-0.09226 -0.47552,-0.140387 -0.13774,-0.05296 -0.2691,-0.11438 -0.39412,-0.184659 -0.11508,0.01384 -0.23638,0.02298 -0.36406,0.02614 -0.12295,0.0032 -0.24954,0.0025 -0.38041,-0.0063 -0.13081,-0.0076 -0.26583,-0.01869 -0.40532,-0.03265 -0.13882,-0.01829 -0.28206,-0.04053 -0.42947,-0.06577 l -0.49963,-0.0861 -0.0714,-0.012 c -0.27578,-0.04718 -0.53229,-0.147541 -0.77034,-0.300772 -0.0127,-0.0086 -0.0235,-0.01949 -0.0359,-0.02849 -0.0166,0.06097 -0.0299,0.12056 -0.0492,0.182572 l -2.98145,-0.51004 -0.0714,-0.01201 -0.0714,-0.012 c -0.18069,-0.03085 -0.34762,-0.0842 -0.50116,-0.159485 -0.0762,-0.03733 -0.14855,-0.07864 -0.21728,-0.124326 -0.0804,0.315935 -0.21376,0.588219 -0.40612,0.810977 -0.23192,0.268639 -0.52789,0.454953 -0.88838,0.559661 -0.35655,0.110244 -0.75861,0.127427 -1.20556,0.05111 l -5.3e-4,-4.99e-4 c -0.36138,-0.0618 -0.6643,-0.162328 -0.90955,-0.302164 -0.24523,-0.139845 -0.43961,-0.307945 -0.58231,-0.503643 -0.13877,-0.190132 -0.22991,-0.401479 -0.27332,-0.634025 -0.0435,-0.23254 -0.0436,-0.472146 -10e-4,-0.719399 0.0235,-0.137894 0.0796,-0.321555 0.16773,-0.551155 0.0883,-0.22959 0.21435,-0.482308 0.37889,-0.757583 l 0.59247,0.314427 c -0.11103,0.191426 -0.20131,0.374033 -0.27026,0.548218 -0.0633,0.170212 -0.10701,0.324279 -0.1306,0.462186 -0.0326,0.190177 -0.0303,0.364161 0.006,0.522118 0.0412,0.15878 0.11541,0.298971 0.22193,0.419983 0.11047,0.126602 0.24952,0.228612 0.41732,0.306269 0.17171,0.08327 0.37167,0.144217 0.5999,0.183265 0.18544,0.03176 0.36815,0.03617 0.54829,0.01319 0.1841,-0.01673 0.35075,-0.06246 0.50019,-0.134768 0.14858,-0.06769 0.27209,-0.161288 0.37093,-0.281422 0.10364,-0.1193 0.16974,-0.262398 0.1982,-0.428812 0.0277,-0.161674 0.034,-0.312163 0.0188,-0.451803 -0.009,-0.143626 -0.0442,-0.330779 -0.10268,-0.56101 l -0.18587,-0.670278 0.68758,-0.586929 0.30762,1.205141 c 0.0421,0.154034 0.0937,0.28272 0.1543,0.38609 0.0614,0.09853 0.14127,0.175563 0.23936,0.231501 0.10287,0.05674 0.23265,0.09852 0.38956,0.125373 l 0.0693,0.0121 c 7.5e-4,1.19e-4 10e-4,-2.17e-4 0.002,-8.6e-5 l 2e-5,5.1e-4 0.0714,0.01201 2.35316,0.402443 c 0.029,-0.313124 0.006,-0.605535 -0.0699,-0.877891 -0.0702,-0.27626 -0.22666,-0.533236 -0.4699,-0.77059 -0.23766,-0.241295 -0.59766,-0.46938 -1.0797,-0.683973 l 0.14166,-0.827288 z m -5.89088,0.622168 0.47762,0.683369 -0.64919,0.491183 -0.47764,-0.683888 z m 8.6428,0.112661 0.47764,0.683898 -0.6492,0.490666 -0.47815,-0.683351 z m 1.22636,0.210259 0.47762,0.683379 -0.64919,0.491185 -0.47764,-0.683898 z m -1.25393,2.547158 c -0.0644,0.0049 -0.12662,0.01837 -0.18659,0.0399 -0.11992,0.04306 -0.2229,0.113528 -0.30818,0.211539 -0.0797,0.09403 -0.13145,0.209985 -0.15505,0.34788 -0.0325,0.190182 -0.0215,0.355833 0.0328,0.497224 0.0597,0.137448 0.1422,0.256709 0.24725,0.357883 0.10579,0.09635 0.20944,0.175246 0.31148,0.236743 0.13498,-0.0454 0.2625,-0.103983 0.38258,-0.176385 0.12009,-0.0725 0.22145,-0.163051 0.30359,-0.271354 0.0869,-0.107489 0.14375,-0.239722 0.17059,-0.396623 0.0227,-0.13314 0.01,-0.257354 -0.0389,-0.373345 -0.0431,-0.119942 -0.11398,-0.22037 -0.21279,-0.300886 -0.0979,-0.08508 -0.21347,-0.139061 -0.3466,-0.161834 -0.0689,-0.01176 -0.13564,-0.01561 -0.2001,-0.01074 z m 30.75549,1.419721 0.4883,0.691204 -0.65601,0.501298 -0.4883,-0.691204 z m -28.45294,2.004372 0.47762,0.683379 -0.64919,0.491185 -0.47764,-0.683888 z m 27.68714,-1.112104 0.48829,0.691204 -0.65598,0.501819 -0.48829,-0.691204 z m -26.46028,1.321826 0.47763,0.683898 -0.6492,0.490665 -0.47765,-0.68389 z m 27.70614,-1.114972 0.48831,0.691206 -0.65601,0.501298 -0.4883,-0.691204 z m -11.79638,1.068053 c -0.0441,0.0072 -0.0909,0.02165 -0.14099,0.04213 -0.0946,0.0377 -0.20454,0.109363 -0.33028,0.215049 -0.12578,0.10577 -0.26889,0.255006 -0.42912,0.447824 -0.0325,0.03908 -0.0558,0.06314 -0.0868,0.09984 0.0971,0.105286 0.19904,0.209235 0.31808,0.307846 0.14703,0.113243 0.30409,0.210749 0.47107,0.293156 0.17173,0.08328 0.3525,0.143797 0.54189,0.181045 0.14034,0.02806 0.28444,0.03178 0.43083,0.02434 -0.0539,-0.158725 -0.0977,-0.337279 -0.1302,-0.539175 -0.0472,-0.296799 -0.0972,-0.518359 -0.15047,-0.66452 -0.0477,-0.150082 -0.10151,-0.252498 -0.16079,-0.306683 -0.0592,-0.05406 -0.1293,-0.08805 -0.21013,-0.101863 -0.038,-0.0065 -0.079,-0.0062 -0.12305,10e-4 z m 17.41921,-0.263865 0.74182,0.126623 -0.67122,3.922826 c -0.0186,0.109321 -0.0274,0.205501 -0.0272,0.288716 0.005,0.08409 0.0248,0.156187 0.0587,0.215803 0.0345,0.0549 0.0903,0.10114 0.1672,0.138843 0.0815,0.03842 0.18878,0.06855 0.32193,0.09148 l 0.27039,0.04659 5.2e-4,-1.8e-5 0.0708,0.01202 2.35371,0.402946 c 0.0291,-0.313131 0.006,-0.606083 -0.07,-0.878405 -0.0702,-0.276268 -0.22667,-0.533238 -0.46989,-0.770598 -0.23769,-0.2413 -0.59763,-0.468869 -1.07967,-0.683454 l 0.14163,-0.827806 2.43514,-1.403508 0.37532,0.636471 -2.1174,1.222593 c 0.45594,0.250355 0.80642,0.530672 1.03684,0.846112 0.27441,0.369933 0.42453,0.779913 0.45037,1.229667 0.0307,0.450564 -0.0361,0.938215 -0.19928,1.463298 l -2.98091,-0.509548 -0.0714,-0.01252 -0.41364,-0.07058 c -0.24725,-0.04227 -0.44632,-0.108387 -0.59741,-0.197854 -0.14633,-0.08864 -0.25568,-0.193089 -0.32812,-0.313111 -0.0716,-0.124819 -0.11434,-0.261832 -0.12793,-0.410993 -0.008,-0.148359 -1.2e-4,-0.300912 0.0268,-0.457827 z m -12.91544,1.036405 c -0.0464,0.0068 -0.0946,0.02082 -0.14464,0.04123 -0.10001,0.04163 -0.22027,0.128701 -0.36041,0.261318 -0.13537,0.133467 -0.30845,0.330941 -0.51973,0.593337 -0.003,0.0032 -0.007,0.0075 -0.009,0.01074 0.0452,0.06891 0.0964,0.135241 0.15676,0.198242 0.11769,0.113058 0.25515,0.212709 0.41181,0.298221 0.15666,0.08551 0.32899,0.151356 0.51674,0.198136 0.18776,0.04677 0.38425,0.07069 0.58955,0.07198 0.0547,-0.20596 0.0835,-0.404509 0.0867,-0.594818 0.003,-0.190336 -0.0178,-0.362774 -0.0652,-0.51759 -0.0421,-0.154024 -0.10876,-0.280304 -0.19952,-0.379022 -0.0909,-0.09877 -0.2004,-0.159227 -0.3288,-0.181195 -0.0427,-0.0074 -0.0876,-0.0074 -0.13398,-5.82e-4 z m -11.96932,0.718942 0.47762,0.683379 -0.64919,0.491185 -0.47764,-0.683889 z m 17.88814,-0.687488 c 0.14436,-0.0071 0.29483,0.0027 0.45174,0.02966 0.2092,0.03576 0.40918,0.09725 0.59993,0.183784 0.19551,0.08718 0.37301,0.193268 0.53265,0.318503 l -0.43281,0.557103 c -0.1265,-0.08998 -0.25866,-0.161627 -0.3964,-0.21457 -0.13302,-0.05207 -0.27587,-0.09101 -0.428,-0.117034 -0.26627,-0.04558 -0.48887,-0.01517 -0.66855,0.09116 -0.17412,0.102288 -0.27971,0.260141 -0.3163,0.474118 -0.021,0.12361 -0.0152,0.247023 0.0176,0.3701 0.0328,0.123044 0.0985,0.239782 0.19724,0.349638 0.0987,0.109812 0.23604,0.206417 0.41252,0.290437 0.0373,0.01777 0.0845,0.03097 0.12559,0.04697 0.43835,-0.07005 0.91742,-0.09069 1.44007,-0.05835 l -0.22945,0.694939 c -0.35127,-0.0063 -0.67163,0.01 -0.9621,0.04761 -0.28959,0.03367 -0.54641,0.08732 -0.76957,0.1616 -0.22314,0.07441 -0.41436,0.164461 -0.57419,0.269255 -0.1559,0.110392 -0.28213,0.232912 -0.37867,0.368114 -0.0925,0.140781 -0.15339,0.294305 -0.18187,0.460717 -0.0415,0.242465 -0.003,0.461841 0.11504,0.658241 0.1181,0.196371 0.31039,0.361535 0.57626,0.495107 0.26985,0.139085 0.61124,0.244143 1.02489,0.314916 0.27578,0.04717 0.54039,0.07515 0.79333,0.08412 0.2577,0.0098 0.50659,-0.0015 0.74701,-0.03341 l 0.0829,0.631146 c -0.25876,0.0537 -0.50153,0.0852 -0.72838,0.09522 -0.22684,0.01013 -0.44339,0.0053 -0.65029,-0.01565 -0.20293,-0.0152 -0.40443,-0.04011 -0.60414,-0.07447 l 5e-5,0.001 c -0.33284,-0.0569 -0.63755,-0.148329 -0.91456,-0.274023 -0.27784,-0.120946 -0.51574,-0.276746 -0.7132,-0.467127 -0.19826,-0.185609 -0.34248,-0.401041 -0.43262,-0.646476 -0.0861,-0.239844 -0.10465,-0.504668 -0.0551,-0.794721 0.057,-0.332818 0.18892,-0.631097 0.39539,-0.894309 0.20572,-0.258432 0.47515,-0.47377 0.80817,-0.646815 0.10937,-0.05684 0.2346,-0.100072 0.35643,-0.146333 -0.025,-0.01935 -0.0555,-0.0363 -0.0794,-0.05615 -0.22288,-0.18495 -0.38346,-0.390806 -0.48161,-0.618042 -0.0981,-0.227222 -0.12475,-0.474161 -0.0792,-0.740436 0.0481,-0.280529 0.1595,-0.516203 0.33396,-0.706573 0.1753,-0.195115 0.39237,-0.333843 0.65127,-0.416791 0.13182,-0.04111 0.27,-0.06515 0.41437,-0.07221 z m -16.66129,0.897209 0.47764,0.683889 -0.6492,0.490675 -0.47765,-0.6839 z m 21.05972,-0.552138 c 0.28364,0.430255 0.49782,0.838413 0.64207,1.225253 0.14983,0.382867 0.22528,0.772748 0.22595,1.169254 6.2e-4,0.396509 -0.0731,0.826872 -0.22098,1.290942 l -2.62459,-0.448986 -0.0113,-0.750524 2.1328,0.364628 c -0.003,-0.269634 -0.0303,-0.524129 -0.0827,-0.763052 -0.0466,-0.242851 -0.12995,-0.484699 -0.25026,-0.725498 -0.11556,-0.239983 -0.27787,-0.490213 -0.48771,-0.751228 z m -18.93421,0.915514 0.47764,0.683898 -0.64922,0.490664 -0.47762,-0.683379 z m 30.50248,-0.566648 0.47764,0.683898 -0.6492,0.490665 -0.47762,-0.683379 z m 1.22634,0.209739 0.47764,0.683899 -0.64921,0.490665 -0.47762,-0.683379 z m -3.88411,1.508783 0.68443,1.790855 c 0.0652,0.162844 0.12582,0.295345 0.18169,0.397884 0.0567,0.09779 0.12434,0.173102 0.20343,0.22576 0.0845,0.04879 0.19359,0.08443 0.32673,0.107322 l 0.0714,0.012 0.0714,0.01253 1.20548,0.205954 c 0.0553,-0.323326 0.0558,-0.629048 0.002,-0.917131 -0.0488,-0.287294 -0.12832,-0.5923 -0.23958,-0.914732 l 0.76124,-0.545028 c 0.0866,0.323147 0.1544,0.655203 0.20369,0.996416 0.0541,0.342018 0.0574,0.695053 0.01,1.058855 -0.0468,0.35904 -0.18202,0.734599 -0.40579,1.126978 l -1.66133,-0.284073 -0.0714,-0.012 -5.1e-4,2e-5 -0.0709,-0.01254 c -0.16167,-0.02775 -0.30659,-0.06947 -0.43405,-0.125581 -0.10829,-0.05335 -0.20553,-0.122953 -0.29806,-0.200585 -0.0264,0.07434 -0.0528,0.148664 -0.0874,0.222968 -0.0882,0.200236 -0.20047,0.3865 -0.33757,0.558797 -0.13718,0.172285 -0.29948,0.320563 -0.48717,0.445073 -0.18293,0.125309 -0.38885,0.212782 -0.61743,0.261764 -0.22466,0.05437 -0.47023,0.05889 -0.73649,0.01332 -0.19971,-0.03426 -0.40965,-0.109517 -0.6296,-0.225469 -0.22077,-0.111182 -0.4218,-0.265487 -0.60337,-0.462937 l 0.34922,-0.453769 c 0.14159,0.08784 0.29167,0.169927 0.44997,0.24593 0.16302,0.07684 0.31118,0.126153 0.44433,0.148938 0.28528,0.04878 0.54547,0.02743 0.7814,-0.06434 0.23592,-0.09177 0.4326,-0.239009 0.58969,-0.442138 0.16185,-0.202321 0.2675,-0.448402 0.31711,-0.738448 0.0186,-0.109311 0.0209,-0.207298 0.006,-0.293011 -0.0149,-0.08565 -0.0393,-0.172816 -0.073,-0.26175 -0.0331,-0.08745 -0.0725,-0.183229 -0.11702,-0.286805 l -0.43011,-1.01794 z" /></g></svg>
